<?xml version="1.0" encoding="UTF-8" standalone="no"?>
<svg
   xmlns:dc="http://purl.org/dc/elements/1.1/"
   xmlns:cc="http://creativecommons.org/ns#"
   xmlns:rdf="http://www.w3.org/1999/02/22-rdf-syntax-ns#"
   xmlns:svg="http://www.w3.org/2000/svg"
   xmlns="http://www.w3.org/2000/svg"
   xmlns:sodipodi="http://sodipodi.sourceforge.net/DTD/sodipodi-0.dtd"
   xmlns:inkscape="http://www.inkscape.org/namespaces/inkscape"
   width="3200"
   height="32"
   viewBox="0 0 846.66666 8.4666666"
   version="1.1"
   id="svg1417"
   sodipodi:docname="long-pattern-2.svg"
   inkscape:version="1.0.1 (3bc2e813f5, 2020-09-07)"
   inkscape:export-filename="E:\Projects\Adelante redo\assets\img\logos\pattern-long-64.png"
   inkscape:export-xdpi="96"
   inkscape:export-ydpi="96">
  <sodipodi:namedview
     pagecolor="#ffffff"
     bordercolor="#666666"
     borderopacity="1"
     objecttolerance="10"
     gridtolerance="10"
     guidetolerance="10"
     inkscape:pageopacity="0"
     inkscape:pageshadow="2"
     inkscape:window-width="1280"
     inkscape:window-height="697"
     id="namedview842"
     showgrid="false"
     units="px"
     inkscape:zoom="0.090349166"
     inkscape:cx="-266.38529"
     inkscape:cy="-211.69192"
     inkscape:window-x="-8"
     inkscape:window-y="-8"
     inkscape:window-maximized="1"
     inkscape:current-layer="svg1417"
     fit-margin-top="0"
     fit-margin-left="0"
     fit-margin-right="0"
     fit-margin-bottom="0"
     inkscape:snap-bbox="true"
     inkscape:bbox-paths="true"
     inkscape:bbox-nodes="true"
     inkscape:snap-bbox-edge-midpoints="true"
     inkscape:snap-bbox-midpoints="true" />
  <defs
     id="defs1411" />
  <metadata
     id="metadata1414">
    <rdf:RDF>
      <cc:Work
         rdf:about="">
        <dc:format>image/svg+xml</dc:format>
        <dc:type
           rdf:resource="http://purl.org/dc/dcmitype/StillImage" />
        <dc:title></dc:title>
      </cc:Work>
    </rdf:RDF>
  </metadata>
  <g
     id="layer1"
     transform="matrix(0.98096009,0,0,1.0241844,-105.51741,-161.45288)"
     inkscape:export-xdpi="96"
     inkscape:export-ydpi="96"
     style="opacity:1" />
  <g
     id="g1497"
     transform="matrix(0.98096009,0,0,1.0241844,-97.050743,-161.45293)"
     inkscape:export-xdpi="96"
     inkscape:export-ydpi="96"
     style="opacity:1" />
  <g
     id="g1509"
     transform="matrix(0.98096009,0,0,1.0241844,-88.584076,-161.45293)"
     inkscape:export-xdpi="96"
     inkscape:export-ydpi="96"
     style="opacity:1" />
  <g
     id="g1521"
     transform="matrix(0.98096009,0,0,1.0241844,-80.117409,-161.45298)"
     inkscape:export-xdpi="96"
     inkscape:export-ydpi="96"
     style="opacity:1" />
  <g
     id="g1565"
     transform="matrix(0.98096009,0,0,1.0241844,-71.650742,-161.45303)"
     inkscape:export-xdpi="96"
     inkscape:export-ydpi="96"
     style="opacity:1" />
  <g
     id="g1577"
     transform="matrix(0.98096009,0,0,1.0241844,-63.184075,-161.45308)"
     inkscape:export-xdpi="96"
     inkscape:export-ydpi="96"
     style="opacity:1" />
  <g
     id="g1589"
     transform="matrix(0.98096009,0,0,1.0241844,-54.717408,-161.45308)"
     inkscape:export-xdpi="96"
     inkscape:export-ydpi="96"
     style="opacity:1" />
  <g
     id="g1601"
     transform="matrix(0.98096009,0,0,1.0241844,-46.250741,-161.45313)"
     inkscape:export-xdpi="96"
     inkscape:export-ydpi="96"
     style="opacity:1" />
  <g
     id="g1613"
     transform="matrix(0.98096009,0,0,1.0241844,-37.784074,-161.45318)"
     inkscape:export-xdpi="96"
     inkscape:export-ydpi="96"
     style="opacity:1" />
  <g
     id="g1625"
     transform="matrix(0.98096009,0,0,1.0241844,-29.317407,-161.45323)"
     inkscape:export-xdpi="96"
     inkscape:export-ydpi="96"
     style="opacity:1" />
  <g
     id="g1637"
     transform="matrix(0.98096009,0,0,1.0241844,-20.85074,-161.45323)"
     inkscape:export-xdpi="96"
     inkscape:export-ydpi="96"
     style="opacity:1" />
  <g
     id="g1649"
     transform="matrix(0.98096009,0,0,1.0241844,-12.384073,-161.45328)"
     inkscape:export-xdpi="96"
     inkscape:export-ydpi="96"
     style="opacity:1" />
  <g
     id="g1661"
     transform="matrix(0.98096009,0,0,1.0241844,-3.9174065,-161.45333)"
     inkscape:export-xdpi="96"
     inkscape:export-ydpi="96"
     style="opacity:1" />
  <g
     id="g1673"
     transform="matrix(0.98096009,0,0,1.0241844,4.5492605,-161.45338)"
     inkscape:export-xdpi="96"
     inkscape:export-ydpi="96"
     style="opacity:1" />
  <g
     id="g1685"
     transform="matrix(0.98096009,0,0,1.0241844,13.015928,-161.45338)"
     inkscape:export-xdpi="96"
     inkscape:export-ydpi="96"
     style="opacity:1" />
  <g
     id="g1697"
     transform="matrix(0.98096009,0,0,1.0241844,21.482595,-161.45343)"
     inkscape:export-xdpi="96"
     inkscape:export-ydpi="96"
     style="opacity:1" />
  <g
     id="g1901"
     transform="matrix(0.98096009,0,0,1.0241844,29.949262,-161.45343)"
     inkscape:export-xdpi="96"
     inkscape:export-ydpi="96"
     style="opacity:1" />
  <g
     id="g1913"
     transform="matrix(0.98096009,0,0,1.0241844,38.415929,-161.45348)"
     inkscape:export-xdpi="96"
     inkscape:export-ydpi="96"
     style="opacity:1" />
  <g
     id="g1925"
     transform="matrix(0.98096009,0,0,1.0241844,46.882596,-161.45348)"
     inkscape:export-xdpi="96"
     inkscape:export-ydpi="96"
     style="opacity:1" />
  <g
     id="g1937"
     transform="matrix(0.98096009,0,0,1.0241844,55.349263,-161.45353)"
     inkscape:export-xdpi="96"
     inkscape:export-ydpi="96"
     style="opacity:1" />
  <g
     id="g1949"
     transform="matrix(0.98096009,0,0,1.0241844,63.81593,-161.45358)"
     inkscape:export-xdpi="96"
     inkscape:export-ydpi="96"
     style="opacity:1" />
  <g
     id="g1961"
     transform="matrix(0.98096009,0,0,1.0241844,72.282597,-161.45363)"
     inkscape:export-xdpi="96"
     inkscape:export-ydpi="96"
     style="opacity:1" />
  <g
     id="g1973"
     transform="matrix(0.98096009,0,0,1.0241844,80.749264,-161.45363)"
     inkscape:export-xdpi="96"
     inkscape:export-ydpi="96"
     style="opacity:1" />
  <g
     id="g1985"
     transform="matrix(0.98096009,0,0,1.0241844,89.215931,-161.45368)"
     inkscape:export-xdpi="96"
     inkscape:export-ydpi="96"
     style="opacity:1" />
  <g
     id="g1997"
     transform="matrix(0.98096009,0,0,1.0241844,97.682602,-161.45373)"
     inkscape:export-xdpi="96"
     inkscape:export-ydpi="96"
     style="opacity:1" />
  <g
     id="g2009"
     transform="matrix(0.98096009,0,0,1.0241844,106.14927,-161.45378)"
     inkscape:export-xdpi="96"
     inkscape:export-ydpi="96"
     style="opacity:1" />
  <g
     id="g2021"
     transform="matrix(0.98096009,0,0,1.0241844,114.61593,-161.45378)"
     inkscape:export-xdpi="96"
     inkscape:export-ydpi="96"
     style="opacity:1" />
  <g
     id="g2033"
     transform="matrix(0.98096009,0,0,1.0241844,123.0826,-161.45383)"
     inkscape:export-xdpi="96"
     inkscape:export-ydpi="96"
     style="opacity:1" />
  <g
     id="g2045"
     transform="matrix(0.98096009,0,0,1.0241844,131.54927,-161.45388)"
     inkscape:export-xdpi="96"
     inkscape:export-ydpi="96"
     style="opacity:1" />
  <g
     id="g2057"
     transform="matrix(0.98096009,0,0,1.0241844,140.01593,-161.45393)"
     inkscape:export-xdpi="96"
     inkscape:export-ydpi="96"
     style="opacity:1" />
  <g
     id="g2069"
     transform="matrix(0.98096009,0,0,1.0241844,148.4826,-161.45393)"
     inkscape:export-xdpi="96"
     inkscape:export-ydpi="96"
     style="opacity:1" />
  <g
     id="g2081"
     transform="matrix(0.98096009,0,0,1.0241844,156.94927,-161.45398)"
     inkscape:export-xdpi="96"
     inkscape:export-ydpi="96"
     style="opacity:1" />
  <g
     id="g2093"
     transform="matrix(0.98096009,0,0,1.0241844,165.41594,-161.45398)"
     inkscape:export-xdpi="96"
     inkscape:export-ydpi="96"
     style="opacity:1" />
  <g
     id="g2105"
     transform="matrix(0.98096009,0,0,1.0241844,173.88261,-161.45403)"
     inkscape:export-xdpi="96"
     inkscape:export-ydpi="96"
     style="opacity:1" />
  <g
     id="g2117"
     transform="matrix(0.98096009,0,0,1.0241844,182.34927,-161.45403)"
     inkscape:export-xdpi="96"
     inkscape:export-ydpi="96"
     style="opacity:1" />
  <g
     id="g2129"
     transform="matrix(0.98096009,0,0,1.0241844,190.81594,-161.45408)"
     inkscape:export-xdpi="96"
     inkscape:export-ydpi="96"
     style="opacity:1" />
  <g
     id="g2141"
     transform="matrix(0.98096009,0,0,1.0241844,199.28261,-161.45413)"
     inkscape:export-xdpi="96"
     inkscape:export-ydpi="96"
     style="opacity:1" />
  <g
     id="g2153"
     transform="matrix(0.98096009,0,0,1.0241844,207.74928,-161.45418)"
     inkscape:export-xdpi="96"
     inkscape:export-ydpi="96"
     style="opacity:1" />
  <g
     id="g2165"
     transform="matrix(0.98096009,0,0,1.0241844,216.21594,-161.45418)"
     inkscape:export-xdpi="96"
     inkscape:export-ydpi="96"
     style="opacity:1" />
  <g
     id="g2177"
     transform="matrix(0.98096009,0,0,1.0241844,224.68261,-161.45423)"
     inkscape:export-xdpi="96"
     inkscape:export-ydpi="96"
     style="opacity:1" />
  <g
     id="g2189"
     transform="matrix(0.98096009,0,0,1.0241844,233.14928,-161.45428)"
     inkscape:export-xdpi="96"
     inkscape:export-ydpi="96"
     style="opacity:1" />
  <g
     id="g2201"
     transform="matrix(0.98096009,0,0,1.0241844,241.61594,-161.45433)"
     inkscape:export-xdpi="96"
     inkscape:export-ydpi="96"
     style="opacity:1" />
  <g
     id="g2213"
     transform="matrix(0.98096009,0,0,1.0241844,250.08261,-161.45433)"
     inkscape:export-xdpi="96"
     inkscape:export-ydpi="96"
     style="opacity:1" />
  <g
     id="g2225"
     transform="matrix(0.98096009,0,0,1.0241844,258.54928,-161.45438)"
     inkscape:export-xdpi="96"
     inkscape:export-ydpi="96"
     style="opacity:1" />
  <g
     id="g2237"
     transform="matrix(0.98096009,0,0,1.0241844,267.01594,-161.45443)"
     inkscape:export-xdpi="96"
     inkscape:export-ydpi="96"
     style="opacity:1" />
  <g
     id="g2249"
     transform="matrix(0.98096009,0,0,1.0241844,275.48261,-161.45448)"
     inkscape:export-xdpi="96"
     inkscape:export-ydpi="96"
     style="opacity:1" />
  <g
     id="g2261"
     transform="matrix(0.98096009,0,0,1.0241844,283.94928,-161.45448)"
     inkscape:export-xdpi="96"
     inkscape:export-ydpi="96"
     style="opacity:1" />
  <g
     id="g2273"
     transform="matrix(0.98096009,0,0,1.0241844,292.41595,-161.45453)"
     inkscape:export-xdpi="96"
     inkscape:export-ydpi="96"
     style="opacity:1" />
  <g
     id="g2285"
     transform="matrix(0.98096009,0,0,1.0241844,300.88261,-161.45453)"
     inkscape:export-xdpi="96"
     inkscape:export-ydpi="96"
     style="opacity:1" />
  <g
     id="g2297"
     transform="matrix(0.98096009,0,0,1.0241844,309.34928,-161.45458)"
     inkscape:export-xdpi="96"
     inkscape:export-ydpi="96"
     style="opacity:1" />
  <g
     id="g2309"
     transform="matrix(0.98096009,0,0,1.0241844,317.81595,-161.45458)"
     inkscape:export-xdpi="96"
     inkscape:export-ydpi="96"
     style="opacity:1" />
  <g
     id="g2321"
     transform="matrix(0.98096009,0,0,1.0241844,326.28261,-161.45463)"
     inkscape:export-xdpi="96"
     inkscape:export-ydpi="96"
     style="opacity:1" />
  <g
     id="g2333"
     transform="matrix(0.98096009,0,0,1.0241844,334.74928,-161.45468)"
     inkscape:export-xdpi="96"
     inkscape:export-ydpi="96"
     style="opacity:1" />
  <g
     id="g2345"
     transform="matrix(0.98096009,0,0,1.0241844,343.21595,-161.45473)"
     inkscape:export-xdpi="96"
     inkscape:export-ydpi="96"
     style="opacity:1" />
  <g
     id="g2357"
     transform="matrix(0.98096009,0,0,1.0241844,351.68261,-161.45473)"
     inkscape:export-xdpi="96"
     inkscape:export-ydpi="96"
     style="opacity:1" />
  <g
     id="g2369"
     transform="matrix(0.98096009,0,0,1.0241844,360.14928,-161.45478)"
     inkscape:export-xdpi="96"
     inkscape:export-ydpi="96"
     style="opacity:1" />
  <g
     id="g2381"
     transform="matrix(0.98096009,0,0,1.0241844,368.61595,-161.45483)"
     inkscape:export-xdpi="96"
     inkscape:export-ydpi="96"
     style="opacity:1" />
  <g
     id="g2393"
     transform="matrix(0.98096009,0,0,1.0241844,377.08262,-161.45488)"
     inkscape:export-xdpi="96"
     inkscape:export-ydpi="96"
     style="opacity:1" />
  <g
     id="g2405"
     transform="matrix(0.98096009,0,0,1.0241844,385.54928,-161.45488)"
     inkscape:export-xdpi="96"
     inkscape:export-ydpi="96"
     style="opacity:1" />
  <g
     id="g2417"
     transform="matrix(0.98096009,0,0,1.0241844,394.01595,-161.45493)"
     inkscape:export-xdpi="96"
     inkscape:export-ydpi="96"
     style="opacity:1" />
  <g
     id="g2429"
     transform="matrix(0.98096009,0,0,1.0241844,402.48262,-161.45498)"
     inkscape:export-xdpi="96"
     inkscape:export-ydpi="96"
     style="opacity:1" />
  <g
     id="g2441"
     transform="matrix(0.98096009,0,0,1.0241844,410.94928,-161.45503)"
     inkscape:export-xdpi="96"
     inkscape:export-ydpi="96"
     style="opacity:1" />
  <g
     id="g2453"
     transform="matrix(0.98096009,0,0,1.0241844,419.41595,-161.45503)"
     inkscape:export-xdpi="96"
     inkscape:export-ydpi="96"
     style="opacity:1" />
  <g
     id="g2465"
     transform="matrix(0.98096009,0,0,1.0241844,427.88262,-161.45508)"
     inkscape:export-xdpi="96"
     inkscape:export-ydpi="96"
     style="opacity:1" />
  <g
     id="g2477"
     transform="matrix(0.98096009,0,0,1.0241844,436.34929,-161.45508)"
     inkscape:export-xdpi="96"
     inkscape:export-ydpi="96"
     style="opacity:1" />
  <g
     id="g2489"
     transform="matrix(0.98096009,0,0,1.0241844,444.81596,-161.45513)"
     inkscape:export-xdpi="96"
     inkscape:export-ydpi="96"
     style="opacity:1" />
  <g
     id="g2501"
     transform="matrix(0.98096009,0,0,1.0241844,453.28262,-161.45513)"
     inkscape:export-xdpi="96"
     inkscape:export-ydpi="96"
     style="opacity:1" />
  <g
     id="g2513"
     transform="matrix(0.98096009,0,0,1.0241844,461.74929,-161.45518)"
     inkscape:export-xdpi="96"
     inkscape:export-ydpi="96"
     style="opacity:1" />
  <g
     id="g2525"
     transform="matrix(0.98096009,0,0,1.0241844,470.21596,-161.45523)"
     inkscape:export-xdpi="96"
     inkscape:export-ydpi="96"
     style="opacity:1" />
  <g
     id="g2537"
     transform="matrix(0.98096009,0,0,1.0241844,478.68263,-161.45528)"
     inkscape:export-xdpi="96"
     inkscape:export-ydpi="96"
     style="opacity:1" />
  <g
     id="g2549"
     transform="matrix(0.98096009,0,0,1.0241844,487.14929,-161.45528)"
     inkscape:export-xdpi="96"
     inkscape:export-ydpi="96"
     style="opacity:1" />
  <g
     id="g2561"
     transform="matrix(0.98096009,0,0,1.0241844,495.61596,-161.45533)"
     inkscape:export-xdpi="96"
     inkscape:export-ydpi="96"
     style="opacity:1" />
  <g
     id="g2573"
     transform="matrix(0.98096009,0,0,1.0241844,504.08263,-161.45538)"
     inkscape:export-xdpi="96"
     inkscape:export-ydpi="96"
     style="opacity:1" />
  <g
     id="g2585"
     transform="matrix(0.98096009,0,0,1.0241844,512.54929,-161.45543)"
     inkscape:export-xdpi="96"
     inkscape:export-ydpi="96"
     style="opacity:1" />
  <g
     id="g2597"
     transform="matrix(0.98096009,0,0,1.0241844,521.01596,-161.45543)"
     inkscape:export-xdpi="96"
     inkscape:export-ydpi="96"
     style="opacity:1" />
  <g
     id="g2609"
     transform="matrix(0.98096009,0,0,1.0241844,529.48263,-161.45548)"
     inkscape:export-xdpi="96"
     inkscape:export-ydpi="96"
     style="opacity:1" />
  <g
     id="g2621"
     transform="matrix(0.98096009,0,0,1.0241844,537.94929,-161.45553)"
     inkscape:export-xdpi="96"
     inkscape:export-ydpi="96"
     style="opacity:1" />
  <g
     id="g2633"
     transform="matrix(0.98096009,0,0,1.0241844,546.41596,-161.45558)"
     inkscape:export-xdpi="96"
     inkscape:export-ydpi="96"
     style="opacity:1" />
  <g
     id="g2645"
     transform="matrix(0.98096009,0,0,1.0241844,554.88263,-161.45558)"
     inkscape:export-xdpi="96"
     inkscape:export-ydpi="96"
     style="opacity:1" />
  <g
     id="g2657"
     transform="matrix(0.98096009,0,0,1.0241844,563.3493,-161.45563)"
     inkscape:export-xdpi="96"
     inkscape:export-ydpi="96"
     style="opacity:1" />
  <g
     id="g2669"
     transform="matrix(0.98096009,0,0,1.0241844,571.81596,-161.45563)"
     inkscape:export-xdpi="96"
     inkscape:export-ydpi="96"
     style="opacity:1" />
  <g
     id="g2681"
     transform="matrix(0.98096009,0,0,1.0241844,580.28263,-161.45568)"
     inkscape:export-xdpi="96"
     inkscape:export-ydpi="96"
     style="opacity:1" />
  <g
     id="g2693"
     transform="matrix(0.98096009,0,0,1.0241844,588.7493,-161.45568)"
     inkscape:export-xdpi="96"
     inkscape:export-ydpi="96"
     style="opacity:1" />
  <g
     id="g2705"
     transform="matrix(0.98096009,0,0,1.0241844,597.21596,-161.45573)"
     inkscape:export-xdpi="96"
     inkscape:export-ydpi="96"
     style="opacity:1" />
  <g
     id="g2717"
     transform="matrix(0.98096009,0,0,1.0241844,605.68263,-161.45578)"
     inkscape:export-xdpi="96"
     inkscape:export-ydpi="96"
     style="opacity:1" />
  <g
     id="g2729"
     transform="matrix(0.98096009,0,0,1.0241844,614.1493,-161.45583)"
     inkscape:export-xdpi="96"
     inkscape:export-ydpi="96"
     style="opacity:1" />
  <g
     id="g2741"
     transform="matrix(0.98096009,0,0,1.0241844,622.61596,-161.45583)"
     inkscape:export-xdpi="96"
     inkscape:export-ydpi="96"
     style="opacity:1" />
  <g
     id="g2753"
     transform="matrix(0.98096009,0,0,1.0241844,631.08263,-161.45588)"
     inkscape:export-xdpi="96"
     inkscape:export-ydpi="96"
     style="opacity:1" />
  <g
     id="g2765"
     transform="matrix(0.98096009,0,0,1.0241844,639.5493,-161.45593)"
     inkscape:export-xdpi="96"
     inkscape:export-ydpi="96"
     style="opacity:1" />
  <g
     id="g2777"
     transform="matrix(0.98096009,0,0,1.0241844,648.01597,-161.45598)"
     inkscape:export-xdpi="96"
     inkscape:export-ydpi="96"
     style="opacity:1" />
  <g
     id="g2789"
     transform="matrix(0.98096009,0,0,1.0241844,656.48263,-161.45598)"
     inkscape:export-xdpi="96"
     inkscape:export-ydpi="96"
     style="opacity:1" />
  <g
     id="g2801"
     transform="matrix(0.98096009,0,0,1.0241844,664.9493,-161.45603)"
     inkscape:export-xdpi="96"
     inkscape:export-ydpi="96"
     style="opacity:1" />
  <g
     id="g2813"
     transform="matrix(0.98096009,0,0,1.0241844,673.41597,-161.45608)"
     inkscape:export-xdpi="96"
     inkscape:export-ydpi="96"
     style="opacity:1" />
  <g
     id="g2825"
     transform="matrix(0.98096009,0,0,1.0241844,681.88263,-161.45613)"
     inkscape:export-xdpi="96"
     inkscape:export-ydpi="96"
     style="opacity:1" />
  <g
     id="g2837"
     transform="matrix(0.98096009,0,0,1.0241844,690.3493,-161.45613)"
     inkscape:export-xdpi="96"
     inkscape:export-ydpi="96"
     style="opacity:1" />
  <g
     id="g2849"
     transform="matrix(0.98096009,0,0,1.0241844,698.81597,-161.45618)"
     inkscape:export-xdpi="96"
     inkscape:export-ydpi="96"
     style="opacity:1" />
  <g
     id="g2861"
     transform="matrix(0.98096009,0,0,1.0241844,707.28264,-161.45618)"
     inkscape:export-xdpi="96"
     inkscape:export-ydpi="96"
     style="opacity:1" />
  <g
     id="g2873"
     transform="matrix(0.98096009,0,0,1.0241844,715.74931,-161.45623)"
     inkscape:export-xdpi="96"
     inkscape:export-ydpi="96"
     style="opacity:1" />
  <g
     id="g2885"
     transform="matrix(0.98096009,0,0,1.0241844,724.21597,-161.45623)"
     inkscape:export-xdpi="96"
     inkscape:export-ydpi="96"
     style="opacity:1" />
  <g
     id="g2897"
     transform="matrix(0.98096009,0,0,1.0241844,732.68264,-161.45628)"
     inkscape:export-xdpi="96"
     inkscape:export-ydpi="96"
     style="opacity:1">
    <path
       id="path2895"
       style="fill:#000000;fill-opacity:1;stroke-width:0.105805"
       d="m 961.34855,157.64044 v 1.05792 h 17.25507 v -1.05792 z m 0,1.58686 v 2.11583 h 3.73988 c -1.24652,2.15862 -2.49336,4.31693 -3.73988,6.47556 v 4.23472 l 3.70269,-6.41252 3.70268,-6.41359 z m 9.84971,0 3.70269,6.41359 3.70267,6.41252 v -4.23472 c -3.8e-4,6.8e-4 -6.4e-4,0.001 -10e-4,0.002 -1.24686,-2.15931 -2.49398,-4.31836 -3.74087,-6.47766 h 3.74193 v -2.11581 z m -1.22217,2.11685 c -1.8581,3.21757 -3.71555,6.43484 -5.57364,9.65239 l 5.57262,-0.001 c 1.85737,-0.002 3.71595,4.4e-4 5.57364,0 -1.85743,-3.21713 -3.71519,-6.43416 -5.57262,-9.65133 z m -8.62754,11.23925 v 1.58388 h 17.25507 v -1.58388 z m -17.25508,-14.94286 v 1.05792 h 17.25508 v -1.05792 z m 0,1.58686 v 2.11583 h 3.73989 c -1.24652,2.15862 -2.49337,4.31693 -3.73989,6.47556 v 4.23472 l 3.7027,-6.41252 3.70268,-6.41359 z m 9.84972,0 3.70269,6.41359 3.70267,6.41252 v -4.23472 c -3.8e-4,6.8e-4 -6.4e-4,0.001 -0.001,0.002 -1.24686,-2.15931 -2.49398,-4.31836 -3.74088,-6.47766 h 3.74194 v -2.11581 z m -1.22217,2.11685 c -1.8581,3.21757 -3.71555,6.43484 -5.57365,9.65239 l 5.57263,-0.001 c 1.85737,-0.002 3.71594,4.4e-4 5.57364,0 -1.85744,-3.21713 -3.71519,-6.43416 -5.57262,-9.65133 z m -8.62755,11.23925 v 1.58388 h 17.25508 v -1.58388 z m -17.25505,-14.94296 v 1.05792 h 17.25507 v -1.05792 z m 0,1.58686 v 2.11583 h 3.73987 c -1.24652,2.15862 -2.49336,4.31693 -3.73987,6.47556 v 4.23472 l 3.70269,-6.41252 3.70267,-6.41359 z m 9.8497,0 3.70269,6.41359 3.70268,6.41252 v -4.23472 c -3.8e-4,6.8e-4 -6.4e-4,0.001 -10e-4,0.002 -1.24686,-2.15931 -2.49398,-4.31836 -3.74088,-6.47766 h 3.74194 v -2.11581 z m -1.22217,2.11685 c -1.85809,3.21757 -3.71555,6.43484 -5.57364,9.65239 l 5.57262,-0.001 c 1.85738,-0.002 3.71595,4.4e-4 5.57364,0 -1.85743,-3.21713 -3.71519,-6.43416 -5.57262,-9.65133 z m -8.62753,11.23925 v 1.58388 h 17.25507 v -1.58388 z m -17.25508,-14.94286 v 1.05792 h 17.25507 v -1.05792 z m 0,1.58686 v 2.11583 h 3.73988 c -1.24652,2.15862 -2.49336,4.31693 -3.73988,6.47556 v 4.23472 l 3.70269,-6.41252 3.70267,-6.41359 z m 9.8497,0 3.7027,6.41359 3.70267,6.41252 v -4.23472 c -3.8e-4,6.8e-4 -6.4e-4,10e-4 -10e-4,0.002 -1.24686,-2.15931 -2.49398,-4.31836 -3.74088,-6.47766 h 3.74194 v -2.11581 z m -1.22217,2.11685 c -1.85809,3.21757 -3.71554,6.43484 -5.57364,9.65239 l 5.57262,-10e-4 c 1.85738,-0.002 3.71595,4.4e-4 5.57365,0 -1.85744,-3.21713 -3.71519,-6.43416 -5.57263,-9.65133 z m -8.62753,11.23925 v 1.58388 h 17.25507 v -1.58388 z m -17.25508,-14.94296 v 1.05792 h 17.25507 v -1.05792 z m 0,1.58686 v 2.11583 h 3.73988 c -1.24652,2.15862 -2.49336,4.31693 -3.73988,6.47556 v 4.23472 l 3.70269,-6.41252 3.70268,-6.41359 z m 9.8497,0 3.7027,6.41359 3.70267,6.41252 v -4.23472 c -3.8e-4,6.8e-4 -6.4e-4,10e-4 -0.001,0.002 -1.24686,-2.15931 -2.49398,-4.31836 -3.74088,-6.47766 h 3.74194 v -2.11581 z m -1.22217,2.11685 c -1.85809,3.21757 -3.71554,6.43484 -5.57364,9.65239 l 5.57262,-10e-4 c 1.85738,-0.002 3.71595,4.4e-4 5.57365,0 -1.85744,-3.21713 -3.71519,-6.43416 -5.57263,-9.65133 z m -8.62753,11.23925 v 1.58388 h 17.25507 v -1.58388 z m -17.25508,-14.94286 v 1.05792 h 17.25507 v -1.05792 z m 0,1.58686 v 2.11583 h 3.73988 c -1.24652,2.15862 -2.49336,4.31693 -3.73988,6.47556 v 4.23472 l 3.70269,-6.41252 3.70268,-6.41359 z m 9.84971,0 3.70269,6.41359 3.70267,6.41252 v -4.23472 c -3.8e-4,6.8e-4 -6.4e-4,10e-4 -10e-4,0.002 -1.24686,-2.15931 -2.49398,-4.31836 -3.74087,-6.47766 h 3.74193 v -2.11581 z m -1.22217,2.11685 c -1.8581,3.21757 -3.71555,6.43484 -5.57364,9.65239 l 5.57262,-0.001 c 1.85737,-0.002 3.71595,4.4e-4 5.57364,0 -1.85743,-3.21713 -3.71519,-6.43416 -5.57262,-9.65133 z m -8.62754,11.23925 v 1.58388 h 17.25507 V 172.5837 Z M 857.8181,157.64074 v 1.05792 h 17.25507 v -1.05792 z m 0,1.58686 v 2.11583 h 3.73988 c -1.24652,2.15862 -2.49336,4.31693 -3.73988,6.47556 v 4.23472 l 3.7027,-6.41252 3.70267,-6.41359 z m 9.84971,0 3.70269,6.41359 3.70267,6.41252 v -4.23472 c -3.8e-4,6.8e-4 -6.4e-4,10e-4 -10e-4,0.002 -1.24686,-2.15931 -2.49397,-4.31836 -3.74087,-6.47766 h 3.74193 v -2.11581 z m -1.22217,2.11685 c -1.8581,3.21757 -3.71555,6.43484 -5.57364,9.65239 l 5.57262,-0.001 c 1.85737,-0.002 3.71595,4.4e-4 5.57364,0 -1.85743,-3.21713 -3.71519,-6.43416 -5.57262,-9.65133 z m -8.62754,11.23925 v 1.58388 h 17.25507 v -1.58388 z m -17.25505,-14.94286 v 1.05792 h 17.25507 v -1.05792 z m 0,1.58686 v 2.11583 h 3.73987 c -1.24652,2.15862 -2.49335,4.31693 -3.73987,6.47556 v 4.23472 l 3.70269,-6.41252 3.70267,-6.41359 z m 9.8497,0 3.70269,6.41359 3.70268,6.41252 v -4.23472 c -3.8e-4,6.8e-4 -6.4e-4,0.001 -10e-4,0.002 -1.24686,-2.15931 -2.49398,-4.31836 -3.74088,-6.47766 h 3.74194 v -2.11581 z m -1.22217,2.11685 c -1.85809,3.21757 -3.71555,6.43484 -5.57364,9.65239 l 5.57262,-0.001 c 1.85738,-0.002 3.71595,4.4e-4 5.57364,0 -1.85743,-3.21713 -3.71518,-6.43416 -5.57262,-9.65133 z m -8.62753,11.23925 v 1.58388 h 17.25507 v -1.58388 z m -17.25508,-14.94288 v 1.05791 h 17.25507 v -1.05791 z m 0,1.58686 v 2.11583 h 3.73987 c -1.24651,2.15862 -2.49335,4.31693 -3.73987,6.47556 v 4.23472 l 3.70269,-6.41252 3.70267,-6.41359 z m 9.8497,0 3.70269,6.41359 3.70268,6.41252 v -4.23472 c -3.8e-4,6.8e-4 -6.4e-4,10e-4 -10e-4,0.002 -1.24686,-2.15931 -2.49398,-4.31836 -3.74088,-6.47766 h 3.74194 v -2.11581 z m -1.22217,2.11685 c -1.85809,3.21757 -3.71555,6.43484 -5.57364,9.65239 l 5.57262,-0.001 c 1.85738,-0.002 3.71595,4.4e-4 5.57364,0 -1.85743,-3.21713 -3.71518,-6.43416 -5.57262,-9.65133 z m -8.62753,11.23925 v 1.58388 h 17.25507 v -1.58388 z m -17.25508,-14.94286 v 1.05791 h 17.25507 v -1.05791 z m 0,1.58686 v 2.11583 h 3.73988 c -1.24652,2.15862 -2.49336,4.31693 -3.73988,6.47556 v 4.23472 l 3.70269,-6.41252 3.70268,-6.41359 z m 9.8497,0 3.7027,6.41359 3.70267,6.41252 v -4.23472 c -3.8e-4,6.8e-4 -6.4e-4,0.001 -10e-4,0.002 -1.24686,-2.15931 -2.49398,-4.31836 -3.74088,-6.47766 h 3.74194 v -2.11581 z m -1.22217,2.11685 c -1.85809,3.21757 -3.71554,6.43484 -5.57364,9.65239 l 5.57263,-0.001 c 1.85737,-0.002 3.71594,4.4e-4 5.57364,0 -1.85744,-3.21713 -3.71519,-6.43416 -5.57263,-9.65133 z m -8.62753,11.23925 v 1.58388 h 17.25507 v -1.58388 z m -17.25506,-14.94296 v 1.05791 h 17.25507 v -1.05791 z m 0,1.58686 v 2.11583 h 3.73988 c -1.24652,2.15862 -2.49336,4.31693 -3.73988,6.47556 v 4.23472 l 3.70269,-6.41252 3.70268,-6.41359 z m 9.8497,0 3.7027,6.41359 3.70267,6.41252 v -4.23472 c -3.8e-4,6.8e-4 -6.4e-4,0.001 -10e-4,0.002 -1.24686,-2.15931 -2.49398,-4.31836 -3.74088,-6.47766 h 3.74194 v -2.11581 z m -1.22216,2.11685 c -1.8581,3.21757 -3.71555,6.43484 -5.57365,9.65239 l 5.57263,-0.001 c 1.85737,-0.002 3.71594,4.4e-4 5.57364,0 -1.85744,-3.21713 -3.71519,-6.43416 -5.57262,-9.65133 z m -8.62754,11.23925 v 1.58388 h 17.25507 v -1.58388 z m -17.25508,-14.94286 v 1.05791 h 17.25507 v -1.05791 z m 0,1.58686 v 2.11583 h 3.73988 c -1.24652,2.15862 -2.49336,4.31693 -3.73988,6.47556 v 4.23472 l 3.7027,-6.41252 3.70267,-6.41359 z m 9.84971,0 3.70269,6.41359 3.70267,6.41252 v -4.23472 c -3.8e-4,6.8e-4 -6.4e-4,0.001 -10e-4,0.002 -1.24685,-2.15931 -2.49397,-4.31836 -3.74087,-6.47766 h 3.74193 v -2.11581 z m -1.22217,2.11685 c -1.8581,3.21757 -3.71555,6.43484 -5.57364,9.65239 l 5.57262,-0.001 c 1.85737,-0.002 3.71595,4.4e-4 5.57364,0 -1.85743,-3.21713 -3.71519,-6.43416 -5.57262,-9.65133 z m -8.62754,11.23925 v 1.58388 h 17.25507 v -1.58388 z m -17.25508,-14.94286 v 1.05791 h 17.25508 v -1.05791 z m 0,1.58686 v 2.11583 h 3.73988 c -1.24652,2.15862 -2.49336,4.31693 -3.73988,6.47556 v 4.23472 l 3.7027,-6.41252 3.70267,-6.41359 z m 9.84971,0 3.70269,6.41359 3.70268,6.41252 v -4.23472 c -3.8e-4,6.8e-4 -6.4e-4,0.001 -10e-4,0.002 -1.24686,-2.15931 -2.49398,-4.31836 -3.74088,-6.47766 h 3.74194 V 159.228 Z m -1.22217,2.11685 c -1.85809,3.21757 -3.71555,6.43484 -5.57364,9.65239 l 5.57262,-0.001 c 1.85737,-0.002 3.71595,4.4e-4 5.57364,0 -1.85743,-3.21713 -3.71519,-6.43416 -5.57262,-9.65133 z m -8.62754,11.23925 v 1.58388 h 17.25508 v -1.58388 z M 737.0326,157.64132 v 1.05791 h 17.25507 v -1.05791 z m 0,1.58686 v 2.11583 h 3.73987 c -1.24652,2.15862 -2.49335,4.31693 -3.73987,6.47556 v 4.23472 l 3.70269,-6.41252 3.70267,-6.41359 z m 9.8497,0 3.70269,6.41359 3.70268,6.41252 v -4.23472 c -3.8e-4,6.8e-4 -6.4e-4,0.001 -0.001,0.002 -1.24686,-2.15931 -2.49398,-4.31836 -3.74088,-6.47766 h 3.74194 v -2.11581 z m -1.22217,2.11685 c -1.85809,3.21757 -3.71555,6.43484 -5.57364,9.65239 l 5.57262,-0.001 c 1.85738,-0.002 3.71595,4.4e-4 5.57364,0 -1.85743,-3.21713 -3.71518,-6.43416 -5.57262,-9.65133 z m -8.62753,11.23925 v 1.58388 h 17.25507 v -1.58388 z m -17.25506,-14.94296 v 1.05791 h 17.25507 v -1.05791 z m 0,1.58686 v 2.11583 h 3.73988 c -1.24652,2.15862 -2.49336,4.31693 -3.73988,6.47556 v 4.23472 l 3.70269,-6.41252 3.70267,-6.41359 z m 9.8497,0 3.7027,6.41359 3.70267,6.41252 v -4.23472 c -3.8e-4,6.8e-4 -6.4e-4,0.001 -10e-4,0.002 -1.24686,-2.15931 -2.49398,-4.31836 -3.74088,-6.47766 h 3.74194 v -2.11581 z m -1.22217,2.11685 c -1.85809,3.21757 -3.71554,6.43484 -5.57364,9.65239 l 5.57262,-0.001 c 1.85738,-0.002 3.71595,4.4e-4 5.57365,0 -1.85744,-3.21713 -3.71519,-6.43416 -5.57263,-9.65133 z m -8.62753,11.23925 v 1.58388 h 17.25507 v -1.58388 z m -17.25508,-14.94286 v 1.05791 h 17.25507 v -1.05791 z m 0,1.58686 v 2.11583 h 3.73988 c -1.24652,2.15862 -2.49336,4.31693 -3.73988,6.47556 v 4.23472 l 3.70269,-6.41252 3.70268,-6.41359 z m 9.84971,0 3.70269,6.41359 3.70267,6.41252 v -4.23472 c -3.8e-4,6.8e-4 -6.4e-4,0.001 -10e-4,0.002 -1.24686,-2.15931 -2.49398,-4.31836 -3.74088,-6.47766 h 3.74194 v -2.11581 z m -1.22217,2.11685 c -1.8581,3.21757 -3.71555,6.43484 -5.57365,9.65239 l 5.57263,-0.001 c 1.85737,-0.002 3.71594,4.4e-4 5.57364,0 -1.85744,-3.21713 -3.71519,-6.43416 -5.57262,-9.65133 z m -8.62754,11.23925 v 1.58388 h 17.25507 v -1.58388 z m -17.25508,-14.94286 v 1.05791 h 17.25507 v -1.05791 z m 0,1.58686 v 2.11583 h 3.73988 c -1.24652,2.15862 -2.49336,4.31693 -3.73988,6.47556 v 4.23472 l 3.70269,-6.41252 3.70268,-6.41359 z m 9.84971,0 3.70269,6.41359 3.70267,6.41252 v -4.23472 c -3.8e-4,6.8e-4 -6.4e-4,0.001 -0.001,0.002 -1.24686,-2.15931 -2.49398,-4.31836 -3.74087,-6.47766 h 3.74193 v -2.11581 z m -1.22217,2.11685 c -1.8581,3.21757 -3.71555,6.43484 -5.57364,9.65239 l 5.57262,-0.001 c 1.85737,-0.002 3.71595,4.4e-4 5.57364,0 -1.85743,-3.21713 -3.71519,-6.43416 -5.57262,-9.65133 z m -8.62754,11.23925 v 1.58388 h 17.25507 v -1.58388 z m -17.25506,-14.94286 v 1.05791 h 17.25508 v -1.05791 z m 0,1.58686 v 2.11583 h 3.73988 c -1.24652,2.15862 -2.49336,4.31693 -3.73988,6.47556 v 4.23472 l 3.7027,-6.41252 3.70267,-6.41359 z m 9.84971,0 3.70269,6.41359 3.70268,6.41252 v -4.23472 c -3.8e-4,6.8e-4 -6.4e-4,0.001 -10e-4,0.002 -1.24686,-2.15931 -2.49398,-4.31836 -3.74088,-6.47766 h 3.74194 v -2.11581 z m -1.22217,2.11685 c -1.85809,3.21757 -3.71555,6.43484 -5.57364,9.65239 l 5.57262,-10e-4 c 1.85737,-0.002 3.71595,4.4e-4 5.57364,0 -1.85743,-3.21713 -3.71519,-6.43416 -5.57262,-9.65133 z m -8.62754,11.23925 v 1.58388 h 17.25508 v -1.58388 z m -17.25507,-14.94296 v 1.05791 h 17.25507 v -1.05791 z m 0,1.58686 v 2.11583 h 3.73987 c -1.24652,2.15862 -2.49336,4.31693 -3.73987,6.47556 v 4.23472 l 3.70269,-6.41252 3.70267,-6.41359 z m 9.8497,0 3.70269,6.41359 3.70268,6.41252 v -4.23472 c -3.8e-4,6.8e-4 -6.4e-4,0.001 -0.001,0.002 -1.24686,-2.15931 -2.49398,-4.31836 -3.74088,-6.47766 h 3.74194 v -2.11581 z m -1.22217,2.11685 c -1.85809,3.21757 -3.71555,6.43484 -5.57364,9.65239 l 5.57262,-10e-4 c 1.85738,-0.002 3.71595,4.4e-4 5.57364,0 -1.85743,-3.21713 -3.71519,-6.43416 -5.57262,-9.65133 z m -8.62753,11.23925 v 1.58388 h 17.25507 v -1.58388 z M 633.50217,157.6417 v 1.05791 h 17.25507 v -1.05791 z m 0,1.58686 v 2.11583 h 3.73988 c -1.24652,2.15862 -2.49336,4.31693 -3.73988,6.47556 v 4.23472 l 3.70269,-6.41252 3.70267,-6.41359 z m 9.8497,0 3.7027,6.41359 3.70267,6.41252 v -4.23472 c -3.8e-4,6.8e-4 -6.4e-4,0.001 -10e-4,0.002 -1.24686,-2.15931 -2.49398,-4.31836 -3.74088,-6.47766 h 3.74194 v -2.11581 z m -1.22217,2.11685 c -1.85809,3.21757 -3.71554,6.43484 -5.57364,9.65239 l 5.57262,-0.001 c 1.85738,-0.002 3.71595,4.4e-4 5.57365,0 -1.85744,-3.21713 -3.71519,-6.43416 -5.57263,-9.65133 z m -8.62753,11.23925 v 1.58388 h 17.25507 v -1.58388 z M 616.24711,157.6417 v 1.05791 h 17.25507 v -1.05791 z m 0,1.58686 v 2.11583 h 3.73988 c -1.24652,2.15862 -2.49336,4.31693 -3.73988,6.47556 v 4.23472 l 3.70269,-6.41252 3.70268,-6.41359 z m 9.84971,0 3.70269,6.41359 3.70267,6.41252 v -4.23472 c -3.8e-4,6.8e-4 -6.4e-4,0.001 -10e-4,0.002 -1.24686,-2.15931 -2.49398,-4.31836 -3.74088,-6.47766 h 3.74194 v -2.11581 z m -1.22217,2.11685 c -1.8581,3.21757 -3.71555,6.43484 -5.57365,9.65239 l 5.57263,-0.001 c 1.85737,-0.002 3.71594,4.4e-4 5.57364,0 -1.85744,-3.21713 -3.71519,-6.43416 -5.57262,-9.65133 z m -8.62754,11.23925 v 1.58388 h 17.25507 v -1.58388 z M 598.99203,157.6418 v 1.05791 h 17.25507 v -1.05791 z m 0,1.58686 v 2.11583 h 3.73988 c -1.24652,2.15862 -2.49336,4.31693 -3.73988,6.47556 v 4.23472 l 3.70269,-6.41252 3.70268,-6.41359 z m 9.84971,0 3.70269,6.41359 3.70267,6.41252 v -4.23472 c -3.8e-4,6.8e-4 -6.4e-4,0.001 -0.001,0.002 -1.24686,-2.15931 -2.49398,-4.31836 -3.74087,-6.47766 h 3.74193 v -2.11581 z m -1.22217,2.11685 c -1.8581,3.21757 -3.71555,6.43484 -5.57364,9.65239 l 5.57262,-10e-4 c 1.85737,-0.002 3.71595,4.4e-4 5.57364,0 -1.85743,-3.21713 -3.71519,-6.43416 -5.57262,-9.65133 z m -8.62754,11.23925 v 1.58388 h 17.25507 v -1.58388 z M 581.73695,157.6418 v 1.05791 h 17.25507 v -1.05791 z m 0,1.58686 v 2.11583 h 3.73988 c -1.24652,2.15862 -2.49336,4.31693 -3.73988,6.47556 v 4.23472 l 3.7027,-6.41252 3.70267,-6.41359 z m 9.84971,0 3.70269,6.41359 3.70267,6.41252 v -4.23472 c -3.8e-4,6.8e-4 -6.4e-4,0.001 -10e-4,0.002 -1.24686,-2.15931 -2.49397,-4.31836 -3.74087,-6.47766 h 3.74193 v -2.11581 z m -1.22217,2.11685 c -1.8581,3.21757 -3.71555,6.43484 -5.57364,9.65239 l 5.57262,-10e-4 c 1.85737,-0.002 3.71595,4.4e-4 5.57364,0 -1.85743,-3.21713 -3.71519,-6.43416 -5.57262,-9.65133 z m -8.62754,11.23925 v 1.58388 h 17.25507 v -1.58388 z M 564.48188,157.6419 v 1.05791 h 17.25507 v -1.05791 z m 0,1.58686 v 2.11583 h 3.73987 c -1.24652,2.15862 -2.49335,4.31693 -3.73987,6.47556 v 4.23472 l 3.70269,-6.41252 3.70267,-6.41359 z m 9.8497,0 3.70269,6.41359 3.70268,6.41252 v -4.23472 c -3.8e-4,6.8e-4 -6.4e-4,10e-4 -10e-4,0.002 -1.24686,-2.15931 -2.49398,-4.31836 -3.74088,-6.47766 h 3.74194 v -2.11581 z m -1.22217,2.11685 c -1.85809,3.21757 -3.71555,6.43484 -5.57364,9.65239 l 5.57262,-10e-4 c 1.85738,-0.002 3.71595,4.4e-4 5.57364,0 -1.85743,-3.21713 -3.71518,-6.43416 -5.57262,-9.65133 z m -8.62753,11.23925 v 1.58388 h 17.25507 v -1.58388 z M 547.22682,157.642 v 1.05791 h 17.25507 V 157.642 Z m 0,1.58686 v 2.11583 h 3.73988 c -1.24652,2.15862 -2.49336,4.31693 -3.73988,6.47556 v 4.23472 l 3.70269,-6.41252 3.70267,-6.41359 z m 9.8497,0 3.7027,6.41359 3.70267,6.41252 v -4.23472 c -3.8e-4,6.8e-4 -6.4e-4,0.001 -10e-4,0.002 -1.24686,-2.15931 -2.49398,-4.31836 -3.74088,-6.47766 h 3.74194 v -2.11581 z m -1.22217,2.11685 c -1.85809,3.21757 -3.71554,6.43484 -5.57364,9.65239 l 5.57262,-0.001 c 1.85738,-0.002 3.71595,4.4e-4 5.57365,0 -1.85744,-3.21713 -3.71519,-6.43416 -5.57263,-9.65133 z m -8.62753,11.23925 v 1.58388 h 17.25507 v -1.58388 z M 529.97173,157.6421 v 1.05791 h 17.25508 v -1.05791 z m 0,1.58686 v 2.11583 h 3.73988 c -1.24652,2.15862 -2.49336,4.31693 -3.73988,6.47556 v 4.23472 l 3.7027,-6.41252 3.70267,-6.41359 z m 9.84971,0 3.70269,6.41359 3.70268,6.41252 v -4.23472 c -3.8e-4,6.8e-4 -6.4e-4,0.001 -10e-4,0.002 -1.24686,-2.15931 -2.49398,-4.31836 -3.74088,-6.47766 h 3.74194 v -2.11581 z m -1.22217,2.11685 c -1.8581,3.21757 -3.71555,6.43484 -5.57364,9.65239 l 5.57262,-0.001 c 1.85737,-0.002 3.71595,4.4e-4 5.57364,0 -1.85743,-3.21713 -3.71519,-6.43416 -5.57262,-9.65133 z m -8.62754,11.23925 v 1.58388 h 17.25508 v -1.58388 z M 512.71666,157.6421 v 1.05791 h 17.25507 v -1.05791 z m 0,1.58686 v 2.11583 h 3.73988 c -1.24652,2.15862 -2.49336,4.31693 -3.73988,6.47556 v 4.23472 l 3.7027,-6.41252 3.70267,-6.41359 z m 9.84971,0 3.70269,6.41359 3.70267,6.41252 v -4.23472 c -3.8e-4,6.8e-4 -6.4e-4,0.001 -10e-4,0.002 -1.24686,-2.15931 -2.49397,-4.31836 -3.74087,-6.47766 h 3.74193 v -2.11581 z m -1.22217,2.11685 c -1.8581,3.21757 -3.71555,6.43484 -5.57364,9.65239 l 5.57262,-0.001 c 1.85737,-0.002 3.71595,4.4e-4 5.57364,0 -1.85743,-3.21713 -3.71519,-6.43416 -5.57262,-9.65133 z m -8.62754,11.23925 v 1.58388 h 17.25507 v -1.58388 z M 495.46161,157.6422 v 1.05791 h 17.25507 v -1.05791 z m 0,1.58686 v 2.11583 h 3.73988 c -1.24652,2.15862 -2.49336,4.31693 -3.73988,6.47556 v 4.23472 l 3.70269,-6.41252 3.70268,-6.41359 z m 9.84971,0 3.70269,6.41359 3.70267,6.41252 v -4.23472 c -3.8e-4,6.8e-4 -6.4e-4,0.001 -10e-4,0.002 -1.24686,-2.15931 -2.49398,-4.31836 -3.74088,-6.47766 h 3.74194 v -2.11581 z m -1.22217,2.11685 c -1.8581,3.21757 -3.71555,6.43484 -5.57365,9.65239 l 5.57263,-0.001 c 1.85737,-0.002 3.71594,4.4e-4 5.57364,0 -1.85744,-3.21713 -3.71519,-6.43416 -5.57262,-9.65133 z m -8.62754,11.23925 v 1.58388 h 17.25507 v -1.58388 z M 478.20652,157.6423 v 1.05791 h 17.25507 v -1.05791 z m 0,1.58686 v 2.11583 h 3.73988 c -1.24652,2.15862 -2.49336,4.31693 -3.73988,6.47556 v 4.23472 l 3.70269,-6.41252 3.70268,-6.41359 z m 9.8497,0 3.7027,6.41359 3.70267,6.41252 v -4.23472 c -3.8e-4,6.8e-4 -6.4e-4,0.001 -10e-4,0.002 -1.24686,-2.15931 -2.49398,-4.31836 -3.74088,-6.47766 h 3.74194 v -2.11581 z m -1.22216,2.11685 c -1.8581,3.21757 -3.71555,6.43484 -5.57365,9.65239 l 5.57263,-0.001 c 1.85737,-0.002 3.71594,4.4e-4 5.57364,0 -1.85744,-3.21713 -3.71519,-6.43416 -5.57262,-9.65133 z m -8.62754,11.23925 v 1.58388 h 17.25507 v -1.58388 z M 460.95145,157.6424 v 1.05791 h 17.25507 v -1.05791 z m 0,1.58686 v 2.11583 h 3.73988 c -1.24652,2.15862 -2.49336,4.31693 -3.73988,6.47556 v 4.23472 l 3.70269,-6.41252 3.70268,-6.41359 z m 9.8497,0 3.7027,6.41359 3.70267,6.41252 v -4.23472 c -3.8e-4,6.8e-4 -6.4e-4,0.001 -0.001,0.002 -1.24686,-2.15931 -2.49398,-4.31836 -3.74088,-6.47766 h 3.74194 v -2.11581 z m -1.22217,2.11685 c -1.85809,3.21757 -3.71554,6.43484 -5.57364,9.65239 l 5.57262,-0.001 c 1.85738,-0.002 3.71595,4.4e-4 5.57365,0 -1.85744,-3.21713 -3.71519,-6.43416 -5.57263,-9.65133 z m -8.62753,11.23925 v 1.58388 h 17.25507 v -1.58388 z M 443.6964,157.6424 v 1.05791 h 17.25507 v -1.05791 z m 0,1.58686 v 2.11583 h 3.73988 c -1.24652,2.15862 -2.49336,4.31693 -3.73988,6.47556 v 4.23472 l 3.70269,-6.41252 3.70267,-6.41359 z m 9.8497,0 3.7027,6.41359 3.70267,6.41252 v -4.23472 c -3.8e-4,6.8e-4 -6.4e-4,0.001 -10e-4,0.002 -1.24686,-2.15931 -2.49398,-4.31836 -3.74088,-6.47766 h 3.74194 v -2.11581 z m -1.22217,2.11685 c -1.85809,3.21757 -3.71554,6.43484 -5.57364,9.65239 l 5.57262,-0.001 c 1.85738,-0.002 3.71595,4.4e-4 5.57365,0 -1.85744,-3.21713 -3.71519,-6.43416 -5.57263,-9.65133 z m -8.62753,11.23925 v 1.58388 h 17.25507 v -1.58388 z M 426.44131,157.6425 v 1.05791 h 17.25507 v -1.05791 z m 0,1.58686 v 2.11583 h 3.73987 c -1.24651,2.15862 -2.49335,4.31693 -3.73987,6.47556 v 4.23472 l 3.70269,-6.41252 3.70267,-6.41359 z m 9.8497,0 3.70269,6.41359 3.70268,6.41252 v -4.23472 c -3.8e-4,6.8e-4 -6.4e-4,0.001 -10e-4,0.002 -1.24686,-2.15931 -2.49398,-4.31836 -3.74088,-6.47766 h 3.74194 v -2.11581 z m -1.22217,2.11685 c -1.85809,3.21757 -3.71555,6.43484 -5.57364,9.65239 l 5.57262,-0.001 c 1.85738,-0.002 3.71595,4.4e-4 5.57364,0 -1.85743,-3.21713 -3.71518,-6.43416 -5.57262,-9.65133 z m -8.62753,11.23925 v 1.58388 h 17.25507 v -1.58388 z m -17.25507,-14.94288 v 1.05791 h 17.25507 v -1.05791 z m 0,1.58686 v 2.11583 h 3.73987 c -1.24652,2.15862 -2.49336,4.31693 -3.73987,6.47556 v 4.23472 l 3.70269,-6.41252 3.70267,-6.41359 z m 9.8497,0 3.70269,6.41359 3.70268,6.41252 v -4.23472 c -3.8e-4,6.8e-4 -6.4e-4,0.001 -10e-4,0.002 -1.24686,-2.15931 -2.49398,-4.31836 -3.74088,-6.47766 h 3.74194 v -2.11581 z m -1.22217,2.11685 c -1.85809,3.21757 -3.71555,6.43484 -5.57364,9.65239 l 5.57262,-0.001 c 1.85738,-0.002 3.71595,4.4e-4 5.57364,0 -1.85743,-3.21713 -3.71518,-6.43416 -5.57262,-9.65133 z m -8.62753,11.23925 v 1.58388 h 17.25507 v -1.58388 z m -17.25508,-14.94286 v 1.05791 h 17.25508 v -1.05791 z m 0,1.58686 v 2.11583 h 3.73988 c -1.24652,2.15862 -2.49336,4.31693 -3.73988,6.47556 v 4.23472 l 3.7027,-6.41252 3.70267,-6.41359 z m 9.84971,0 3.70269,6.41359 3.70268,6.41252 v -4.23472 c -3.8e-4,6.8e-4 -6.4e-4,0.001 -10e-4,0.002 -1.24686,-2.15931 -2.49398,-4.31836 -3.74088,-6.47766 h 3.74194 v -2.11581 z m -1.22217,2.11685 c -1.85809,3.21757 -3.71555,6.43484 -5.57364,9.65239 l 5.57262,-0.001 c 1.85737,-0.002 3.71595,4.4e-4 5.57364,0 -1.85743,-3.21713 -3.71519,-6.43416 -5.57262,-9.65133 z m -8.62754,11.23925 v 1.58388 h 17.25508 v -1.58388 z m -17.25507,-14.94296 v 1.05791 h 17.25507 v -1.05791 z m 0,1.58686 v 2.11583 h 3.73988 c -1.24652,2.15862 -2.49336,4.31693 -3.73988,6.47556 v 4.23472 l 3.7027,-6.41252 3.70267,-6.41359 z m 9.84971,0 3.70269,6.41359 3.70267,6.41252 v -4.23472 c -3.8e-4,6.8e-4 -6.4e-4,0.001 -10e-4,0.002 -1.24685,-2.15931 -2.49397,-4.31836 -3.74087,-6.47766 h 3.74193 v -2.11581 z m -1.22217,2.11685 c -1.8581,3.21757 -3.71555,6.43484 -5.57364,9.65239 l 5.57262,-0.001 c 1.85737,-0.002 3.71595,4.4e-4 5.57364,0 -1.85743,-3.21713 -3.71519,-6.43416 -5.57262,-9.65133 z m -8.62754,11.23925 v 1.58388 h 17.25507 v -1.58388 z m -17.25507,-14.94286 v 1.05791 h 17.25507 v -1.05791 z m 0,1.58686 v 2.11583 h 3.73988 c -1.24652,2.15862 -2.49336,4.31693 -3.73988,6.47556 v 4.23472 l 3.7027,-6.41252 3.70267,-6.41359 z m 9.84971,0 3.70269,6.41359 3.70267,6.41252 v -4.23472 c -3.8e-4,6.8e-4 -6.4e-4,0.001 -10e-4,0.002 -1.24686,-2.15931 -2.49397,-4.31836 -3.74087,-6.47766 h 3.74193 v -2.11581 z m -1.22217,2.11685 c -1.8581,3.21757 -3.71555,6.43484 -5.57364,9.65239 l 5.57262,-0.001 c 1.85737,-0.002 3.71595,4.4e-4 5.57364,0 -1.85743,-3.21713 -3.71519,-6.43416 -5.57262,-9.65133 z m -8.62754,11.23925 v 1.58388 h 17.25507 v -1.58388 z m -17.25509,-14.94296 v 1.05791 H 357.421 v -1.05791 z m 0,1.58686 v 2.11583 h 3.73988 c -1.24652,2.15862 -2.49336,4.31693 -3.73988,6.47556 v 4.23472 l 3.70269,-6.41252 3.70268,-6.41359 z m 9.84971,0 3.70269,6.41359 3.70267,6.41252 v -4.23472 c -3.8e-4,6.8e-4 -6.4e-4,0.001 -10e-4,0.002 -1.24686,-2.15931 -2.49398,-4.31836 -3.74088,-6.47766 h 3.74194 v -2.11581 z m -1.22217,2.11685 c -1.8581,3.21757 -3.71555,6.43484 -5.57365,9.65239 l 5.57263,-0.001 c 1.85737,-0.002 3.71594,4.4e-4 5.57364,0 -1.85744,-3.21713 -3.71519,-6.43416 -5.57262,-9.65133 z m -8.62754,11.23925 v 1.58388 H 357.421 v -1.58388 z m -17.25507,-14.94286 v 1.05791 h 17.25507 v -1.05791 z m 0,1.58686 v 2.11583 h 3.73988 c -1.24652,2.15862 -2.49336,4.31693 -3.73988,6.47556 v 4.23472 l 3.70269,-6.41252 3.70268,-6.41359 z m 9.8497,0 3.7027,6.41359 3.70267,6.41252 v -4.23472 c -3.8e-4,6.8e-4 -6.4e-4,10e-4 -10e-4,0.002 -1.24686,-2.15931 -2.49398,-4.31836 -3.74088,-6.47766 h 3.74194 v -2.11581 z m -1.22216,2.11685 c -1.8581,3.21757 -3.71555,6.43484 -5.57365,9.65239 l 5.57263,-10e-4 c 1.85737,-0.002 3.71594,4.4e-4 5.57364,0 -1.85744,-3.21713 -3.71519,-6.43416 -5.57262,-9.65133 z m -8.62754,11.23925 v 1.58388 h 17.25507 v -1.58388 z m -17.25507,-14.94296 v 1.05791 h 17.25507 v -1.05791 z m 0,1.58686 v 2.11583 h 3.73988 c -1.24652,2.15862 -2.49336,4.31693 -3.73988,6.47556 v 4.23472 l 3.70269,-6.41252 3.70268,-6.41359 z m 9.8497,0 3.7027,6.41359 3.70267,6.41252 v -4.23472 c -3.8e-4,6.8e-4 -6.4e-4,10e-4 -0.001,0.002 -1.24686,-2.15931 -2.49398,-4.31836 -3.74088,-6.47766 h 3.74194 v -2.11581 z m -1.22217,2.11685 c -1.85809,3.21757 -3.71554,6.43484 -5.57364,9.65239 l 5.57262,-10e-4 c 1.85738,-0.002 3.71595,4.4e-4 5.57365,0 -1.85744,-3.21713 -3.71519,-6.43416 -5.57263,-9.65133 z m -8.62753,11.23925 v 1.58388 h 17.25507 v -1.58388 z m -17.25507,-14.94286 v 1.05791 h 17.25507 v -1.05791 z m 0,1.58686 v 2.11583 h 3.73988 c -1.24652,2.15862 -2.49336,4.31693 -3.73988,6.47556 v 4.23472 l 3.70269,-6.41252 3.70267,-6.41359 z m 9.8497,0 3.7027,6.41359 3.70267,6.41252 v -4.23472 c -3.8e-4,6.8e-4 -6.4e-4,10e-4 -0.001,0.002 -1.24686,-2.15931 -2.49398,-4.31836 -3.74088,-6.47766 h 3.74194 v -2.11581 z m -1.22217,2.11685 c -1.85809,3.21757 -3.71554,6.43484 -5.57364,9.65239 l 5.57262,-0.001 c 1.85738,-0.002 3.71595,4.4e-4 5.57365,0 -1.85744,-3.21713 -3.71519,-6.43416 -5.57263,-9.65133 z m -8.62753,11.23925 v 1.58388 h 17.25507 v -1.58388 z m -17.25507,-14.94286 v 1.05791 h 17.25507 v -1.05791 z m 0,1.58686 v 2.11583 h 3.73987 c -1.24651,2.15862 -2.49335,4.31693 -3.73987,6.47556 v 4.23472 l 3.70269,-6.41252 3.70267,-6.41359 z m 9.8497,0 3.70269,6.41359 3.70268,6.41252 v -4.23472 c -3.8e-4,6.8e-4 -6.4e-4,0.001 -10e-4,0.002 -1.24686,-2.15931 -2.49398,-4.31836 -3.74088,-6.47766 h 3.74194 v -2.11581 z m -1.22217,2.11685 c -1.85809,3.21757 -3.71555,6.43484 -5.57364,9.65239 l 5.57262,-0.001 c 1.85738,-0.002 3.71595,4.4e-4 5.57364,0 -1.85743,-3.21713 -3.71518,-6.43416 -5.57262,-9.65133 z m -8.62753,11.23925 v 1.58388 h 17.25507 v -1.58388 z m -17.25507,-14.94286 v 1.05791 h 17.25507 v -1.05791 z m 0,1.58686 v 2.11583 h 3.73987 c -1.24652,2.15862 -2.49336,4.31693 -3.73987,6.47556 v 4.23472 l 3.70269,-6.41252 3.70267,-6.41359 z m 9.8497,0 3.70269,6.41359 3.70268,6.41252 v -4.23472 c -3.8e-4,6.8e-4 -6.4e-4,0.001 -10e-4,0.002 -1.24686,-2.15931 -2.49398,-4.31836 -3.74088,-6.47766 h 3.74194 v -2.11581 z m -1.22217,2.11685 c -1.85809,3.21757 -3.71555,6.43484 -5.57364,9.65239 l 5.57262,-0.001 c 1.85738,-0.002 3.71595,4.4e-4 5.57364,0 -1.85743,-3.21713 -3.71519,-6.43416 -5.57262,-9.65133 z m -8.62753,11.23925 v 1.58388 h 17.25507 v -1.58388 z M 236.6355,157.64318 v 1.05791 h 17.25508 v -1.05791 z m 0,1.58686 v 2.11583 h 3.73988 c -1.24652,2.15862 -2.49336,4.31693 -3.73988,6.47556 v 4.23472 l 3.7027,-6.41252 3.70267,-6.41359 z m 9.84971,0 3.70269,6.41359 3.70268,6.41252 v -4.23472 c -3.8e-4,6.8e-4 -6.4e-4,0.001 -0.001,0.002 -1.24686,-2.15931 -2.49398,-4.31836 -3.74088,-6.47766 h 3.74194 v -2.11581 z m -1.22217,2.11685 c -1.85809,3.21757 -3.71555,6.43484 -5.57364,9.65239 l 5.57262,-0.001 c 1.85737,-0.002 3.71595,4.4e-4 5.57364,0 -1.85743,-3.21713 -3.71519,-6.43416 -5.57262,-9.65133 z m -8.62754,11.23925 v 1.58388 h 17.25508 v -1.58388 z m -17.25507,-14.94286 v 1.05791 h 17.25507 v -1.05791 z m 0,1.58686 v 2.11583 h 3.73988 c -1.24652,2.15862 -2.49336,4.31693 -3.73988,6.47556 v 4.23472 l 3.7027,-6.41252 3.70267,-6.41359 z m 9.84971,0 3.70269,6.41359 3.70267,6.41252 v -4.23472 c -3.8e-4,6.8e-4 -6.4e-4,0.001 -0.001,0.002 -1.24685,-2.15931 -2.49397,-4.31837 -3.74087,-6.47766 h 3.74193 v -2.11581 z m -1.22217,2.11685 c -1.8581,3.21757 -3.71555,6.43484 -5.57364,9.65239 l 5.57262,-0.001 c 1.85737,-0.002 3.71595,4.4e-4 5.57364,0 -1.85743,-3.21713 -3.71519,-6.43416 -5.57262,-9.65133 z m -8.62754,11.23925 v 1.58388 h 17.25507 v -1.58388 z m -17.25507,-14.94288 v 1.05791 h 17.25507 v -1.05791 z m 0,1.58686 v 2.11583 h 3.73988 c -1.24652,2.15862 -2.49336,4.31693 -3.73988,6.47556 v 4.23472 l 3.7027,-6.41252 3.70267,-6.41359 z m 9.84971,0 3.70269,6.41359 3.70267,6.41252 v -4.23472 c -3.8e-4,6.8e-4 -6.4e-4,0.001 -10e-4,0.002 -1.24686,-2.15931 -2.49398,-4.31837 -3.74087,-6.47766 h 3.74193 v -2.11581 z m -1.22217,2.11685 c -1.8581,3.21757 -3.71555,6.43484 -5.57364,9.65239 l 5.57262,-0.001 c 1.85737,-0.002 3.71595,4.4e-4 5.57364,0 -1.85743,-3.21713 -3.71519,-6.43416 -5.57262,-9.65133 z m -8.62754,11.23925 v 1.58388 h 17.25507 v -1.58388 z m -17.25509,-14.94286 v 1.05791 h 17.25507 v -1.05791 z m 0,1.58686 v 2.11583 h 3.73988 c -1.24652,2.15862 -2.49336,4.31693 -3.73988,6.47556 v 4.23472 l 3.70269,-6.41252 3.70268,-6.41359 z m 9.84971,0 3.70269,6.41359 3.70267,6.41252 v -4.23472 c -3.8e-4,6.8e-4 -6.4e-4,0.001 -0.001,0.002 -1.24686,-2.15931 -2.49398,-4.31837 -3.74088,-6.47766 h 3.74194 v -2.11581 z m -1.22217,2.11685 c -1.8581,3.21757 -3.71555,6.43484 -5.57365,9.65239 l 5.57263,-0.001 c 1.85737,-0.002 3.71594,4.4e-4 5.57364,0 -1.85744,-3.21713 -3.71519,-6.43416 -5.57262,-9.65133 z m -8.62754,11.23925 v 1.58388 h 17.25507 v -1.58388 z m -17.25505,-14.94296 v 1.05791 h 17.25507 v -1.05791 z m 0,1.58686 v 2.11583 h 3.73988 c -1.24652,2.15862 -2.49336,4.31693 -3.73988,6.47556 v 4.23472 l 3.70269,-6.41252 3.70268,-6.41359 z m 9.8497,0 3.7027,6.41359 3.70267,6.41252 v -4.23472 c -3.8e-4,6.8e-4 -6.4e-4,0.001 -0.001,0.002 -1.24686,-2.15931 -2.49398,-4.31837 -3.74088,-6.47766 h 3.74194 v -2.11581 z m -1.22216,2.11685 c -1.8581,3.21757 -3.71555,6.43484 -5.57365,9.65239 l 5.57263,-0.001 c 1.85737,-0.002 3.71594,4.4e-4 5.57364,0 -1.85744,-3.21713 -3.71519,-6.43416 -5.57262,-9.65133 z m -8.62754,11.23925 v 1.58388 h 17.25507 v -1.58388 z m -17.25507,-14.94286 v 1.05791 h 17.25507 v -1.05791 z m 0,1.58686 v 2.11583 h 3.73988 c -1.24652,2.15862 -2.49336,4.31693 -3.73988,6.47556 v 4.23472 l 3.70269,-6.41252 3.70267,-6.41359 z m 9.8497,0 3.7027,6.41359 3.70267,6.41252 v -4.23472 c -3.8e-4,6.8e-4 -6.4e-4,0.001 -0.001,0.002 -1.24686,-2.15931 -2.49398,-4.31837 -3.74088,-6.47766 h 3.74194 v -2.11581 z m -1.22217,2.11685 c -1.85809,3.21757 -3.71554,6.43484 -5.57364,9.65239 l 5.57262,-0.001 c 1.85738,-0.002 3.71595,4.4e-4 5.57365,0 -1.85744,-3.21713 -3.71519,-6.43416 -5.57263,-9.65133 z m -8.62753,11.23925 v 1.58388 h 17.25507 v -1.58388 z m -17.25509,-14.94286 v 1.05791 h 17.25507 v -1.05791 z m 0,1.58686 v 2.11583 h 3.73988 c -1.24652,2.15862 -2.49336,4.31693 -3.73988,6.47556 v 4.23472 l 3.70269,-6.41252 3.70267,-6.41359 z m 9.8497,0 3.7027,6.41359 3.70267,6.41252 v -4.23472 c -3.8e-4,6.8e-4 -6.4e-4,0.001 -0.001,0.002 -1.24686,-2.15931 -2.49398,-4.31837 -3.74088,-6.47766 h 3.74194 v -2.11581 z m -1.22217,2.11685 c -1.85809,3.21757 -3.71555,6.43484 -5.57364,9.65239 l 5.57262,-0.001 c 1.85738,-0.002 3.71595,4.4e-4 5.57365,0 -1.85744,-3.21713 -3.71519,-6.43416 -5.57263,-9.65133 z m -8.62753,11.23925 v 1.58388 h 17.25507 v -1.58388 z m -17.25505,-14.94286 v 1.05791 h 17.25507 v -1.05791 z m 0,1.58686 v 2.11583 h 3.73987 c -1.24651,2.15862 -2.49335,4.31693 -3.73987,6.47556 v 4.23472 l 3.70269,-6.41252 3.70267,-6.41359 z m 9.8497,0 3.70269,6.41359 3.70268,6.41252 v -4.23472 c -3.8e-4,6.8e-4 -6.4e-4,0.001 -10e-4,0.002 -1.24686,-2.15931 -2.49398,-4.31837 -3.74088,-6.47766 h 3.74194 v -2.11581 z m -1.22217,2.11685 c -1.85809,3.21757 -3.71555,6.43484 -5.57364,9.65239 l 5.57262,-0.001 c 1.85738,-0.002 3.71595,4.4e-4 5.57364,0 -1.85743,-3.21713 -3.71518,-6.43416 -5.57262,-9.65133 z m -8.62753,11.23925 v 1.58388 h 17.25507 v -1.58388 z M 98.594935,157.64376 v 1.05791 h 17.255075 v -1.05791 z m 0,1.58686 v 2.11583 h 3.739875 c -1.24652,2.15862 -2.493355,4.31693 -3.739875,6.47556 v 4.23472 l 3.702695,-6.41252 3.70267,-6.41359 z m 9.849705,0 3.70269,6.41359 3.70268,6.41252 v -4.23472 c -3.8e-4,6.8e-4 -6.4e-4,0.001 -10e-4,0.002 -1.24686,-2.15931 -2.49398,-4.31837 -3.74088,-6.47766 h 3.74194 v -2.11581 z m -1.22217,2.11685 c -1.85809,3.21757 -3.71555,6.43484 -5.57364,9.65239 l 5.57262,-0.001 c 1.85738,-0.002 3.71595,4.4e-4 5.57364,0 -1.85743,-3.21713 -3.71519,-6.43416 -5.57262,-9.65133 z m -8.627535,11.23925 v 1.58388 h 17.255075 v -1.58388 z M 81.339844,157.64386 v 1.05791 h 17.255071 v -1.05791 z m 0,1.58686 v 2.11583 h 3.739878 c -1.246519,2.15861 -2.493359,4.31693 -3.739878,6.47556 v 4.23472 l 3.702693,-6.41252 3.702673,-6.41359 z m 9.849705,0 3.702693,6.41359 3.702673,6.41252 v -4.23472 c -3.8e-4,6.8e-4 -6.4e-4,0.001 -0.0011,0.002 -1.24686,-2.15931 -2.493979,-4.31837 -3.740878,-6.47766 h 3.741937 v -2.11581 z m -1.222169,2.11685 c -1.858094,3.21757 -3.715548,6.43484 -5.573642,9.65239 l 5.572622,-10e-4 c 1.857374,-0.002 3.715948,4.4e-4 5.573642,0 -1.857434,-3.21713 -3.715188,-6.43416 -5.572622,-9.65133 z m -8.627536,11.23925 v 1.58388 h 17.255071 v -1.58388 z M 64.084793,157.64386 v 1.05791 h 17.255071 v -1.05791 z m 0,1.58686 v 2.11583 h 3.739878 c -1.246519,2.15861 -2.493359,4.31693 -3.739878,6.47556 v 4.23472 l 3.702693,-6.41252 3.702673,-6.41359 z m 9.849705,0 3.702693,6.41359 3.702673,6.41252 v -4.23472 c -3.8e-4,6.8e-4 -6.4e-4,0.001 -0.0011,0.002 -1.246859,-2.15931 -2.493978,-4.31837 -3.740877,-6.47766 h 3.741937 v -2.11581 z m -1.22217,2.11685 c -1.858093,3.21757 -3.715548,6.43484 -5.573641,9.65239 l 5.572622,-10e-4 c 1.857374,-0.002 3.715948,4.4e-4 5.573642,0 -1.857434,-3.21713 -3.715188,-6.43416 -5.572623,-9.65133 z m -8.627535,11.23925 v 1.58388 h 17.255071 v -1.58388 z M 46.829722,157.64396 v 1.05791 h 17.255071 v -1.05791 z m 0,1.58686 v 2.11583 H 50.5696 c -1.246519,2.15861 -2.493359,4.31693 -3.739878,6.47556 v 4.23472 l 3.702693,-6.41252 3.702673,-6.41359 z m 9.849705,0 3.702693,6.41359 3.702673,6.41252 v -4.23472 c -3.8e-4,6.8e-4 -6.4e-4,10e-4 -0.0011,0.002 -1.246859,-2.15931 -2.493978,-4.31837 -3.740877,-6.47766 h 3.741937 v -2.11581 z m -1.22217,2.11685 c -1.858094,3.21757 -3.715548,6.43484 -5.573642,9.65239 l 5.572623,-0.001 c 1.857374,-0.002 3.715948,4.4e-4 5.573642,0 -1.857435,-3.21713 -3.715189,-6.43416 -5.572623,-9.65133 z m -8.627535,11.23925 v 1.58388 h 17.255071 v -1.58388 z M 29.574631,157.64396 v 1.05791 h 17.255071 v -1.05791 z m 0,1.58686 v 2.11583 h 3.739878 c -1.24652,2.15861 -2.493359,4.31693 -3.739878,6.47556 v 4.23472 l 3.702693,-6.41252 3.702673,-6.41359 z m 9.849704,0 3.702694,6.41359 3.702673,6.41252 v -4.23472 c -3.8e-4,6.8e-4 -6.4e-4,10e-4 -0.0011,0.002 -1.246859,-2.15931 -2.493978,-4.31837 -3.740878,-6.47766 h 3.741938 v -2.11581 z m -1.222169,2.11685 c -1.858094,3.21757 -3.715548,6.43484 -5.573642,9.65239 l 5.572623,-0.001 c 1.857374,-0.002 3.715947,4.4e-4 5.573642,0 -1.857435,-3.21713 -3.715189,-6.43416 -5.572623,-9.65133 z m -8.627535,11.23925 v 1.58388 h 17.255071 v -1.58388 z M 12.31956,157.64406 v 1.05791 h 17.255071 v -1.05791 z m 0,1.58686 v 2.11583 h 3.739878 c -1.24652,2.15861 -2.493359,4.31693 -3.739878,6.47556 v 4.23472 l 3.702693,-6.41252 3.702673,-6.41359 z m 9.849704,0 3.702693,6.41359 3.702674,6.41252 v -4.23472 c -3.8e-4,6.8e-4 -6.4e-4,0.001 -0.0011,0.002 -1.246859,-2.15931 -2.493978,-4.31837 -3.740878,-6.47766 h 3.741938 v -2.11581 z m -1.222169,2.11685 c -1.858094,3.21757 -3.715548,6.43484 -5.573642,9.65239 l 5.572623,-0.001 c 1.857374,-0.002 3.715947,4.4e-4 5.573641,0 -1.857434,-3.21713 -3.715188,-6.43416 -5.572622,-9.65133 z m -8.627535,11.23925 v 1.58388 h 17.255071 v -1.58388 z M -4.9354916,157.64416 v 1.05791 H 12.31958 v -1.05791 z m 0,1.58686 v 2.11583 h 3.7398782 c -1.2465194,2.15861 -2.4933587,4.31693 -3.7398782,6.47556 v 4.23472 l 3.7026932,-6.41252 3.7026731,-6.41359 z m 9.8497048,0 3.7026932,6.41359 3.7026736,6.41252 v -4.23472 c -3.8e-4,6.8e-4 -6.4e-4,0.001 -0.0011,0.002 -1.246859,-2.15931 -2.4939786,-4.31837 -3.7408779,-6.47766 H 12.31958 v -2.11581 z m -1.2221692,2.11685 c -1.8580939,3.21757 -3.71554804,6.43484 -5.5736419,9.65239 l 5.5726223,-0.001 c 1.8573741,-0.002 3.7159478,4.4e-4 5.5736418,0 -1.8574341,-3.21713 -3.7151881,-6.43416 -5.5726222,-9.65133 z m -8.6275356,11.23925 V 174.171 H 12.31958 v -1.58388 z M -22.190583,157.64424 v 1.05791 h 17.2550714 v -1.05791 z m 0,1.58686 v 2.11583 h 3.739879 c -1.24652,2.15861 -2.493359,4.31693 -3.739879,6.47556 v 4.23472 l 3.702693,-6.41252 3.702674,-6.41359 z m 9.849705,0 3.7026932,6.41359 3.7026732,6.41252 v -4.23472 c -3.798e-4,6.8e-4 -6.397e-4,0.001 -0.00106,0.002 -1.2468593,-2.15931 -2.4939785,-4.31837 -3.7408778,-6.47766 h 3.7419374 v -2.11581 z m -1.222169,2.11685 c -1.858094,3.21757 -3.715548,6.43484 -5.573642,9.65239 l 5.572622,-0.001 c 1.857374,-0.002 3.7159481,4.4e-4 5.5736421,0 -1.8574341,-3.21713 -3.7151881,-6.43416 -5.5726221,-9.65133 z m -8.627536,11.23925 v 1.58388 h 17.2550714 v -1.58388 z m -17.255071,-14.94296 v 1.05791 h 17.255071 v -1.05791 z m 0,1.58686 v 2.11583 h 3.739878 c -1.246519,2.15861 -2.493358,4.31693 -3.739878,6.47556 v 4.23472 l 3.702693,-6.41252 3.702673,-6.41359 z m 9.849705,0 3.702693,6.41359 3.702673,6.41252 v -4.23472 c -3.8e-4,6.8e-4 -6.39e-4,0.001 -0.0011,0.002 -1.24686,-2.15931 -2.493979,-4.31837 -3.740878,-6.47766 h 3.741937 v -2.11581 z m -1.222169,2.11685 c -1.858094,3.21757 -3.715548,6.43484 -5.573642,9.65239 l 5.572622,-0.001 c 1.857374,-0.002 3.715948,4.4e-4 5.573642,0 -1.857434,-3.21713 -3.715188,-6.43416 -5.572622,-9.65133 z m -8.627536,11.23925 v 1.58388 h 17.255071 v -1.58388 z m -17.255051,-14.94286 v 1.05791 h 17.255071 v -1.05791 z m 0,1.58686 v 2.11583 h 3.739878 c -1.246519,2.15861 -2.493359,4.31693 -3.739878,6.47556 v 4.23472 l 3.702693,-6.41252 3.702673,-6.41359 z m 9.849705,0 3.702693,6.41359 3.702673,6.41252 v -4.23472 c -3.8e-4,6.8e-4 -6.4e-4,0.001 -0.0011,0.002 -1.24686,-2.15931 -2.493979,-4.31837 -3.740878,-6.47766 h 3.741937 v -2.11581 z m -1.222169,2.11685 c -1.858094,3.21757 -3.715548,6.43484 -5.573642,9.65239 l 5.572622,-0.001 c 1.857374,-0.002 3.715948,4.4e-4 5.573642,0 -1.857434,-3.21713 -3.715188,-6.43416 -5.572622,-9.65133 z m -8.627536,11.23925 v 1.58388 h 17.255071 v -1.58388 z m -17.255091,-14.94286 v 1.05791 h 17.255071 v -1.05791 z m 0,1.58686 v 2.11583 h 3.739878 c -1.246519,2.15861 -2.493359,4.31693 -3.739878,6.47556 v 4.23472 l 3.702693,-6.41252 3.702673,-6.41359 z m 9.849705,0 3.702693,6.41359 3.702673,6.41252 v -4.23472 c -3.8e-4,6.8e-4 -6.4e-4,0.001 -0.0011,0.002 -1.246859,-2.15931 -2.493978,-4.31837 -3.740877,-6.47766 h 3.741937 v -2.11581 z m -1.22217,2.11685 c -1.858093,3.21757 -3.715548,6.43484 -5.573641,9.65239 l 5.572622,-0.001 c 1.857374,-0.002 3.715948,4.4e-4 5.573642,0 -1.857434,-3.21713 -3.715188,-6.43416 -5.572623,-9.65133 z m -8.627535,11.23925 v 1.58388 h 17.255071 v -1.58388 z m -17.255071,-14.94286 v 1.05791 h 17.255071 v -1.05791 z m 0,1.58686 v 2.11583 h 3.739878 c -1.246519,2.15861 -2.493359,4.31693 -3.739878,6.47556 v 4.23472 l 3.702693,-6.41252 3.702673,-6.41359 z m 9.849705,0 3.702693,6.41359 3.702673,6.41252 v -4.23472 c -3.8e-4,6.8e-4 -6.4e-4,0.001 -0.0011,0.002 -1.246859,-2.15931 -2.493978,-4.31837 -3.740877,-6.47766 h 3.741937 v -2.11581 z m -1.22217,2.11685 c -1.858094,3.21757 -3.715548,6.43484 -5.573642,9.65239 l 5.572623,-0.001 c 1.857374,-0.002 3.715948,4.4e-4 5.573642,0 -1.857435,-3.21713 -3.715189,-6.43416 -5.572623,-9.65133 z m -8.627535,11.23925 v 1.58388 h 17.255071 v -1.58388 z m -17.255073,-14.94296 v 1.05791 h 17.255073 v -1.05791 z m 0,1.58686 v 2.11583 h 3.73988 c -1.24652,2.15861 -2.49336,4.31693 -3.73988,6.47556 v 4.23472 l 3.70269,-6.41252 3.70268,-6.41359 z m 9.849706,0 3.702694,6.41359 3.702673,6.41252 v -4.23472 c -3.8e-4,6.8e-4 -6.4e-4,0.001 -0.0011,0.002 -1.246859,-2.15931 -2.493978,-4.31837 -3.740878,-6.47766 h 3.741938 v -2.11581 z m -1.222169,2.11685 c -1.858097,3.21757 -3.715547,6.43484 -5.573637,9.65239 l 5.572618,-0.001 c 1.857374,-0.002 3.715947,4.4e-4 5.573641,0 -1.857434,-3.21713 -3.715188,-6.43416 -5.572622,-9.65133 z m -8.627537,11.23925 v 1.58388 h 17.255073 v -1.58388 z m -17.25507,-14.94286 v 1.05791 h 17.25507 v -1.05791 z m 0,1.58686 v 2.11583 h 3.73988 c -1.24652,2.15861 -2.49336,4.31693 -3.73988,6.47556 v 4.23472 l 3.70269,-6.41252 3.70268,-6.41359 z m 9.84971,0 3.70269,6.41359 3.70267,6.41252 v -4.23472 c -3.8e-4,6.8e-4 -6.4e-4,0.001 -10e-4,0.002 -1.24686,-2.15931 -2.49398,-4.31837 -3.74088,-6.47766 h 3.74194 v -2.11581 z m -1.22217,2.11685 c -1.8581,3.21757 -3.71555,6.43484 -5.57365,9.65239 l 5.57263,-0.001 c 1.85737,-0.002 3.71594,4.4e-4 5.57364,0 -1.85744,-3.21713 -3.71519,-6.43416 -5.57262,-9.65133 z m -8.62754,11.23925 v 1.58388 h 17.25507 v -1.58388 z m -17.25507,-14.94286 v 1.05791 h 17.25507 v -1.05791 z m 0,1.58686 v 2.11583 h 3.73988 c -1.24652,2.15861 -2.49336,4.31693 -3.73988,6.47556 v 4.23472 l 3.70269,-6.41252 3.70268,-6.41359 z m 9.8497,0 3.7027,6.41359 3.70267,6.41252 v -4.23472 c -3.8e-4,6.8e-4 -6.4e-4,0.001 -10e-4,0.002 -1.24686,-2.15931 -2.49398,-4.31837 -3.74088,-6.47766 h 3.74194 v -2.11581 z m -1.22217,2.11685 c -1.85809,3.21757 -3.71554,6.43484 -5.57364,9.65239 l 5.57263,-0.001 c 1.85737,-0.002 3.71594,4.4e-4 5.57364,0 -1.85744,-3.21713 -3.71519,-6.43416 -5.57263,-9.65133 z m -8.62753,11.23925 v 1.58388 h 17.25507 v -1.58388 z m -17.25509,-14.94286 v 1.05791 h 17.25507 v -1.05791 z m 0,1.58686 v 2.11583 h 3.73988 c -1.24652,2.15861 -2.49336,4.31693 -3.73988,6.47556 v 4.23472 l 3.70269,-6.41252 3.70267,-6.41359 z m 9.8497,0 3.7027,6.41359 3.70267,6.41252 v -4.23472 c -3.8e-4,6.8e-4 -6.4e-4,0.001 -0.001,0.002 -1.24686,-2.15931 -2.49398,-4.31837 -3.74088,-6.47766 h 3.74194 v -2.11581 z m -1.22217,2.11685 c -1.85809,3.21757 -3.71554,6.43484 -5.57364,9.65239 l 5.57262,-0.001 c 1.85738,-0.002 3.71595,4.4e-4 5.57365,0 -1.85744,-3.21713 -3.71519,-6.43416 -5.57263,-9.65133 z m -8.62753,11.23925 v 1.58388 h 17.25507 v -1.58388 z m -17.25505,-14.94296 v 1.05791 h 17.25507 v -1.05791 z m 0,1.58686 v 2.11583 h 3.73988 c -1.24652,2.15861 -2.49336,4.31693 -3.73988,6.47556 v 4.23472 l 3.70269,-6.41252 3.70267,-6.41359 z m 9.8497,0 3.7027,6.41359 3.70267,6.41252 v -4.23472 c -3.8e-4,6.8e-4 -6.4e-4,0.001 -10e-4,0.002 -1.24686,-2.15931 -2.49398,-4.31837 -3.74088,-6.47766 h 3.74194 v -2.11581 z m -1.22217,2.11685 c -1.85809,3.21757 -3.71555,6.43484 -5.57364,9.65239 l 5.57262,-0.001 c 1.85738,-0.002 3.71595,4.4e-4 5.57364,0 -1.85743,-3.21713 -3.71518,-6.43416 -5.57262,-9.65133 z m -8.62753,11.23925 v 1.58388 h 17.25507 v -1.58388 z m -17.25507,-14.94286 v 1.05791 h 17.25507 v -1.05791 z m 0,1.58686 v 2.11583 h 3.73987 c -1.24652,2.15861 -2.49335,4.31693 -3.73987,6.47556 v 4.23472 l 3.70269,-6.41252 3.70267,-6.41359 z m 9.8497,0 3.70269,6.41359 3.70268,6.41252 v -4.23472 c -3.8e-4,6.8e-4 -6.4e-4,10e-4 -0.001,0.002 -1.24686,-2.15931 -2.49398,-4.31837 -3.74088,-6.47766 h 3.74194 v -2.11581 z m -1.22217,2.11685 c -1.85809,3.21757 -3.71555,6.43484 -5.57364,9.65238 l 5.57262,-10e-4 c 1.85738,-0.002 3.71595,4.4e-4 5.57364,0 -1.85743,-3.21713 -3.71518,-6.43416 -5.57262,-9.65133 z m -8.62753,11.23925 v 1.58388 h 17.25507 v -1.58388 z m -17.2551,-14.94296 v 1.05791 h 17.25508 v -1.05791 z m 0,1.58686 v 2.11583 h 3.73988 c -1.24652,2.15861 -2.49336,4.31693 -3.73988,6.47556 v 4.23472 l 3.7027,-6.41252 3.70267,-6.41359 z m 9.84971,0 3.70269,6.41359 3.70268,6.41252 v -4.23472 c -3.8e-4,6.8e-4 -6.4e-4,10e-4 -0.001,0.002 -1.24686,-2.15931 -2.49398,-4.31837 -3.74088,-6.47766 h 3.74194 v -2.11581 z m -1.22217,2.11685 c -1.85809,3.21757 -3.71555,6.43484 -5.57364,9.65238 l 5.57262,-10e-4 c 1.85738,-0.002 3.71595,4.4e-4 5.57364,0 -1.85743,-3.21713 -3.71519,-6.43416 -5.57262,-9.65133 z m -8.62754,11.23925 v 1.58388 h 17.25508 v -1.58388 z m -17.25507,-14.94288 v 1.05791 h 17.25507 v -1.05791 z m 0,1.58686 v 2.11583 h 3.73988 c -1.24652,2.15861 -2.49336,4.31693 -3.73988,6.47556 v 4.23472 l 3.7027,-6.41252 3.70267,-6.41359 z m 9.84971,0 3.70269,6.41359 3.70267,6.41252 v -4.23472 c -3.7e-4,6.8e-4 -6.3e-4,0.001 -0.001,0.002 -1.24686,-2.15931 -2.49398,-4.31837 -3.74088,-6.47766 h 3.74193 v -2.11581 z m -1.22217,2.11685 c -1.85809,3.21757 -3.71555,6.43484 -5.57364,9.65238 l 5.57262,-0.001 c 1.85737,-0.002 3.71595,4.4e-4 5.57364,0 -1.85743,-3.21713 -3.71519,-6.43416 -5.57262,-9.65133 z m -8.62754,11.23925 v 1.58388 h 17.25507 v -1.58388 z m -17.25507,-14.94296 v 1.05791 h 17.25507 v -1.05791 z m 0,1.58686 v 2.11583 h 3.73988 c -1.24652,2.15861 -2.49336,4.31693 -3.73988,6.47556 v 4.23472 l 3.7027,-6.41252 3.70267,-6.41359 z m 9.84971,0 3.70269,6.41359 3.70267,6.41252 v -4.23472 c -3.8e-4,6.8e-4 -6.4e-4,0.001 -0.001,0.002 -1.24686,-2.15931 -2.49397,-4.31837 -3.74087,-6.47766 h 3.74193 v -2.11581 z m -1.22217,2.11685 c -1.8581,3.21757 -3.71555,6.43484 -5.57364,9.65238 l 5.57262,-0.001 c 1.85737,-0.002 3.71595,4.4e-4 5.57364,0 -1.85743,-3.21713 -3.71519,-6.43416 -5.57262,-9.65133 z m -8.62754,11.23925 v 1.58388 h 17.25507 v -1.58388 z m -17.25507,-14.94286 v 1.05791 h 17.25507 v -1.05791 z m 0,1.58686 v 2.11583 h 3.73988 c -1.24652,2.15861 -2.49336,4.31693 -3.73988,6.47556 v 4.23472 l 3.70269,-6.41252 3.70268,-6.41359 z m 9.84971,0 3.70269,6.41359 3.70267,6.41252 v -4.23472 c -3.8e-4,6.8e-4 -6.4e-4,10e-4 -0.001,0.002 -1.24686,-2.15931 -2.49398,-4.31837 -3.74087,-6.47766 h 3.74193 v -2.11581 z m -1.22217,2.11685 c -1.8581,3.21757 -3.71555,6.43484 -5.57364,9.65238 l 5.57262,-10e-4 c 1.85737,-0.002 3.71595,4.4e-4 5.57364,0 -1.85743,-3.21713 -3.71519,-6.43416 -5.57262,-9.65133 z m -8.62754,11.23925 v 1.58388 h 17.25507 v -1.58388 z m -17.25507,-14.94286 v 1.05791 h 17.25507 v -1.05791 z m 0,1.58686 v 2.11583 h 3.73988 c -1.24652,2.15861 -2.49336,4.31693 -3.73988,6.47556 v 4.23472 l 3.70269,-6.41252 3.70268,-6.41359 z m 9.84971,0 3.70269,6.41359 3.70267,6.41252 v -4.23472 c -3.8e-4,6.8e-4 -6.4e-4,0.001 -0.001,0.002 -1.24686,-2.15931 -2.49398,-4.31837 -3.74088,-6.47766 h 3.74194 V 159.232 Z m -1.22217,2.11685 c -1.8581,3.21757 -3.71555,6.43484 -5.57365,9.65238 l 5.57263,-10e-4 c 1.85737,-0.002 3.71594,4.4e-4 5.57364,0 -1.85744,-3.21713 -3.71519,-6.43416 -5.57262,-9.65133 z m -8.62754,11.23925 v 1.58388 h 17.25507 v -1.58388 z m -17.25507,-14.94286 v 1.05791 h 17.25507 v -1.05791 z m 0,1.58686 v 2.11583 h 3.73988 c -1.24652,2.15861 -2.49336,4.31693 -3.73988,6.47556 v 4.23472 l 3.70269,-6.41252 3.70268,-6.41359 z m 9.8497,0 3.7027,6.41359 3.70267,6.41252 v -4.23472 c -3.8e-4,6.8e-4 -6.4e-4,0.001 -0.001,0.002 -1.24686,-2.15931 -2.49398,-4.31837 -3.74088,-6.47766 h 3.74194 v -2.11581 z m -1.22217,2.11685 c -1.85809,3.21757 -3.71554,6.43484 -5.57364,9.65238 l 5.57263,-0.001 c 1.85737,-0.002 3.71594,4.4e-4 5.57364,0 -1.85744,-3.21713 -3.71519,-6.43416 -5.57263,-9.65133 z m -8.62753,11.23925 v 1.58388 h 17.25507 v -1.58388 z m -17.25507,-14.94296 v 1.05791 h 17.25507 v -1.05791 z m 0,1.58686 v 2.11583 h 3.73988 c -1.24652,2.15861 -2.49336,4.31693 -3.73988,6.47556 v 4.23472 l 3.70269,-6.41252 3.70267,-6.41359 z m 9.8497,0 3.7027,6.41359 3.70267,6.41252 v -4.23472 c -3.8e-4,6.8e-4 -6.4e-4,0.001 -10e-4,0.002 -1.24686,-2.15931 -2.49398,-4.31837 -3.74088,-6.47766 h 3.74194 v -2.11581 z m -1.22217,2.11685 c -1.85809,3.21757 -3.71554,6.43484 -5.57364,9.65238 l 5.57262,-0.001 c 1.85738,-0.002 3.71595,4.4e-4 5.57365,0 -1.85744,-3.21713 -3.71519,-6.43416 -5.57263,-9.65133 z m -8.62753,11.23925 v 1.58388 h 17.25507 v -1.58388 z m -17.25507,-14.94286 v 1.05791 h 17.25507 v -1.05791 z m 0,1.58686 v 2.11583 h 3.73988 c -1.24652,2.15861 -2.49336,4.31693 -3.73988,6.47556 v 4.23472 l 3.70269,-6.41252 3.70267,-6.41359 z m 9.8497,0 3.70269,6.41359 3.70268,6.41252 v -4.23472 c -3.8e-4,6.8e-4 -6.4e-4,0.001 -10e-4,0.002 -1.24686,-2.15931 -2.49398,-4.31837 -3.74088,-6.47766 h 3.74194 v -2.11581 z m -1.22217,2.11685 c -1.85809,3.21757 -3.71555,6.43484 -5.57364,9.65238 l 5.57262,-0.001 c 1.85738,-0.002 3.71595,4.4e-4 5.57364,0 -1.85743,-3.21713 -3.71518,-6.43416 -5.57262,-9.65133 z m -8.62753,11.23925 v 1.58388 h 17.25507 v -1.58388 z m -17.25507,-14.94286 v 1.05791 h 17.25507 v -1.05791 z m 0,1.58686 v 2.11583 h 3.73987 c -1.24652,2.15861 -2.49335,4.31693 -3.73987,6.47556 v 4.23472 l 3.70269,-6.41252 3.70267,-6.41359 z m 9.8497,0 3.70269,6.41359 3.70268,6.41252 v -4.23472 c -3.8e-4,6.8e-4 -6.4e-4,0.001 -10e-4,0.002 -1.24686,-2.15931 -2.49398,-4.31837 -3.74088,-6.47766 h 3.74194 v -2.11581 z m -1.22217,2.11685 c -1.85809,3.21757 -3.71555,6.43484 -5.57364,9.65238 l 5.57262,-0.001 c 1.85738,-0.002 3.71595,4.3e-4 5.57364,0 -1.85743,-3.21713 -3.71518,-6.43416 -5.57262,-9.65133 z m -8.62753,11.23925 v 1.58388 h 17.25507 v -1.58388 z m -17.25508,-14.94286 v 1.05791 h 17.25508 v -1.05791 z m 0,1.58686 v 2.11583 h 3.73988 c -1.24652,2.15861 -2.49336,4.31693 -3.73988,6.47556 v 4.23472 l 3.7027,-6.41252 3.70267,-6.41359 z m 9.84971,0 3.70269,6.41359 3.70268,6.41252 v -4.23472 c -3.8e-4,6.8e-4 -6.4e-4,0.001 -0.001,0.002 -1.24686,-2.15931 -2.49398,-4.31837 -3.74088,-6.47766 h 3.74194 v -2.11581 z m -1.22217,2.11685 c -1.85809,3.21757 -3.71555,6.43484 -5.57364,9.65238 l 5.57262,-0.001 c 1.85737,-0.002 3.71595,4.3e-4 5.57364,0 -1.85743,-3.21713 -3.71519,-6.43416 -5.57262,-9.65133 z m -8.62754,11.23925 v 1.58388 h 17.25508 v -1.58388 z m -17.25507,-14.94296 v 1.05791 h 17.25507 v -1.05791 z m 0,1.58686 v 2.11583 h 3.73988 c -1.24652,2.15861 -2.49336,4.31693 -3.73988,6.47556 v 4.23472 l 3.7027,-6.41252 3.70267,-6.41359 z m 9.84971,0 3.70269,6.41359 3.70267,6.41252 v -4.23472 c -3.8e-4,6.8e-4 -6.3e-4,0.001 -10e-4,0.002 -1.24686,-2.15931 -2.49398,-4.31837 -3.74088,-6.47766 h 3.74193 v -2.11581 z m -1.22217,2.11685 c -1.85809,3.21757 -3.71555,6.43484 -5.57364,9.65238 l 5.57262,-0.001 c 1.85737,-0.002 3.71595,4.3e-4 5.57364,0 -1.85743,-3.21713 -3.71519,-6.43416 -5.57262,-9.65133 z m -8.62754,11.23925 v 1.58388 h 17.25507 v -1.58388 z m -17.25507,-14.94286 v 1.05791 h 17.25507 v -1.05791 z m 0,1.58686 v 2.11583 h 3.73988 c -1.24652,2.15861 -2.49336,4.31693 -3.73988,6.47556 v 4.23472 l 3.7027,-6.41252 3.70267,-6.41359 z m 9.84971,0 3.70269,6.41359 3.70267,6.41252 v -4.23472 c -3.8e-4,6.8e-4 -6.4e-4,0.001 -10e-4,0.002 -1.24686,-2.15931 -2.49397,-4.31837 -3.74087,-6.47766 h 3.74193 v -2.11581 z m -1.22217,2.11685 c -1.8581,3.21757 -3.71555,6.43484 -5.57364,9.65238 l 5.57262,-0.001 c 1.85737,-0.002 3.71595,4.3e-4 5.57364,0 -1.85743,-3.21713 -3.71519,-6.43416 -5.57262,-9.65133 z m -8.62754,11.23925 v 1.58388 h 17.25507 v -1.58388 z m -17.25509,-14.94286 v 1.05791 h 17.25507 v -1.05791 z m 0,1.58686 v 2.11583 h 3.73988 c -1.24652,2.15861 -2.49336,4.31693 -3.73988,6.47556 v 4.23472 l 3.70269,-6.41252 3.70268,-6.41359 z m 9.84971,0 3.70269,6.41359 3.70267,6.41252 v -4.23472 c -3.8e-4,6.8e-4 -6.4e-4,0.001 -10e-4,0.002 -1.24686,-2.15931 -2.49398,-4.31837 -3.74087,-6.47766 h 3.74193 v -2.11581 z m -1.22217,2.11685 c -1.8581,3.21757 -3.71555,6.43484 -5.57364,9.65238 l 5.57262,-0.001 c 1.85737,-0.002 3.71595,4.3e-4 5.57364,0 -1.85743,-3.21713 -3.71519,-6.43416 -5.57262,-9.65133 z m -8.62754,11.23925 v 1.58388 h 17.25507 v -1.58388 z m -17.25507,-14.94288 v 1.05791 h 17.25507 v -1.05791 z m 0,1.58686 v 2.11583 h 3.73988 c -1.24652,2.15861 -2.49336,4.31693 -3.73988,6.47556 v 4.23472 l 3.70269,-6.41252 3.70268,-6.41359 z m 9.84971,0 3.70269,6.41359 3.70267,6.41252 v -4.23472 c -3.8e-4,6.8e-4 -6.4e-4,0.001 -0.001,0.002 -1.24686,-2.15931 -2.49398,-4.31837 -3.74088,-6.47766 h 3.74194 v -2.11581 z m -1.22217,2.11685 c -1.8581,3.21757 -3.71555,6.43484 -5.57365,9.65238 l 5.57263,-0.001 c 1.85737,-0.002 3.71594,4.3e-4 5.57364,0 -1.85744,-3.21713 -3.71519,-6.43416 -5.57262,-9.65133 z m -8.62754,11.23925 v 1.58388 h 17.25507 v -1.58388 z M -453.5674,157.6459 v 1.05791 h 17.25507 v -1.05791 z m 0,1.58686 v 2.11583 h 3.73988 c -1.24652,2.15861 -2.49336,4.31693 -3.73988,6.47556 v 4.23472 l 3.70269,-6.41252 3.70268,-6.41359 z m 9.8497,0 3.7027,6.41359 3.70267,6.41252 v -4.23472 c -3.8e-4,6.8e-4 -6.4e-4,0.001 -0.001,0.002 -1.24686,-2.15931 -2.49398,-4.31837 -3.74088,-6.47766 h 3.74194 v -2.11581 z m -1.22217,2.11685 c -1.85809,3.21757 -3.71554,6.43484 -5.57364,9.65238 l 5.57263,-0.001 c 1.85737,-0.002 3.71594,4.3e-4 5.57364,0 -1.85744,-3.21713 -3.71519,-6.43416 -5.57263,-9.65133 z m -8.62753,11.23925 v 1.58388 h 17.25507 v -1.58388 z M -470.82247,157.646 v 1.05791 h 17.25507 V 157.646 Z m 0,1.58686 v 2.11583 h 3.73988 c -1.24652,2.15861 -2.49336,4.31693 -3.73988,6.47556 v 4.23472 l 3.70269,-6.41252 3.70267,-6.41359 z m 9.8497,0 3.7027,6.41359 3.70267,6.41252 v -4.23472 c -3.8e-4,6.8e-4 -6.4e-4,0.001 -10e-4,0.002 -1.24686,-2.15931 -2.49398,-4.31837 -3.74088,-6.47766 h 3.74194 v -2.11581 z m -1.22217,2.11685 c -1.85809,3.21757 -3.71554,6.43484 -5.57364,9.65238 l 5.57262,-0.001 c 1.85738,-0.002 3.71595,4.4e-4 5.57365,0 -1.85744,-3.21712 -3.71519,-6.43415 -5.57263,-9.65132 z m -8.62753,11.23925 v 1.58388 h 17.25507 v -1.58388 z M -488.07754,157.646 v 1.05791 h 17.25507 V 157.646 Z m 0,1.58686 v 2.11583 h 3.73988 c -1.24652,2.15861 -2.49336,4.31693 -3.73988,6.47556 v 4.23472 l 3.70269,-6.41252 3.70267,-6.41359 z m 9.8497,0 3.70269,6.41359 3.70268,6.41252 v -4.23472 c -3.8e-4,6.8e-4 -6.4e-4,0.001 -10e-4,0.002 -1.24686,-2.15931 -2.49398,-4.31837 -3.74088,-6.47766 h 3.74194 v -2.11581 z m -1.22217,2.11685 c -1.85809,3.21757 -3.71555,6.43484 -5.57364,9.65238 l 5.57262,-0.001 c 1.85738,-0.002 3.71595,4.4e-4 5.57364,0 -1.85743,-3.21712 -3.71518,-6.43415 -5.57262,-9.65132 z m -8.62753,11.23925 v 1.58388 h 17.25507 v -1.58388 z m -17.25507,-14.94286 v 1.05791 h 17.25507 v -1.05791 z m 0,1.58686 v 2.11583 h 3.73987 c -1.24652,2.15861 -2.49335,4.31693 -3.73987,6.47556 v 4.23472 l 3.70269,-6.41252 3.70267,-6.41359 z m 9.8497,0 3.70269,6.41359 3.70268,6.41252 v -4.23472 c -3.8e-4,6.8e-4 -6.4e-4,10e-4 -10e-4,0.002 -1.24686,-2.15931 -2.49398,-4.31837 -3.74088,-6.47766 h 3.74194 v -2.11581 z m -1.22217,2.11685 c -1.85809,3.21757 -3.71555,6.43484 -5.57364,9.65238 l 5.57262,-0.001 c 1.85738,-0.002 3.71595,4.4e-4 5.57364,0 -1.85743,-3.21712 -3.71518,-6.43415 -5.57262,-9.65132 z m -8.62753,11.23925 v 1.58388 h 17.25507 v -1.58388 z m -17.25508,-14.94296 v 1.05791 h 17.25508 v -1.05791 z m 0,1.58686 v 2.11583 h 3.73988 c -1.24652,2.15861 -2.49336,4.31693 -3.73988,6.47556 v 4.23472 l 3.7027,-6.41252 3.70267,-6.41359 z m 9.84971,0 3.70269,6.41359 3.70268,6.41252 v -4.23472 c -3.8e-4,6.8e-4 -6.4e-4,10e-4 -0.001,0.002 -1.24686,-2.15931 -2.49398,-4.31837 -3.74088,-6.47766 h 3.74194 v -2.11581 z m -1.22217,2.11685 c -1.85809,3.21757 -3.71555,6.43484 -5.57364,9.65238 l 5.57262,-0.001 c 1.85737,-0.002 3.71595,4.4e-4 5.57364,0 -1.85743,-3.21712 -3.71519,-6.43415 -5.57262,-9.65132 z m -8.62754,11.23925 v 1.58388 h 17.25508 v -1.58388 z m -17.25507,-14.94286 v 1.05791 h 17.25507 v -1.05791 z m 0,1.58686 v 2.11583 h 3.73988 c -1.24652,2.15861 -2.49336,4.31693 -3.73988,6.47556 v 4.23472 l 3.7027,-6.41252 3.70267,-6.41359 z m 9.84971,0 3.70269,6.41359 3.70267,6.41252 v -4.23472 c -3.8e-4,6.8e-4 -6.4e-4,10e-4 -0.001,0.002 -1.24686,-2.15931 -2.49398,-4.31837 -3.74088,-6.47766 h 3.74193 v -2.11581 z m -1.22217,2.11685 c -1.85809,3.21757 -3.71555,6.43484 -5.57364,9.65238 l 5.57262,-10e-4 c 1.85737,-0.002 3.71595,4.4e-4 5.57364,0 -1.85743,-3.21712 -3.71519,-6.43415 -5.57262,-9.65132 z m -8.62754,11.23925 v 1.58388 h 17.25507 v -1.58388 z m -17.25507,-14.94286 v 1.05791 h 17.25507 v -1.05791 z m 0,1.58686 v 2.11583 h 3.73988 c -1.24652,2.15861 -2.49336,4.31693 -3.73988,6.47556 v 4.23472 l 3.7027,-6.41252 3.70267,-6.41359 z m 9.84971,0 3.70269,6.41359 3.70267,6.41252 v -4.23472 c -3.8e-4,6.8e-4 -6.4e-4,0.001 -10e-4,0.002 -1.24686,-2.15931 -2.49397,-4.31837 -3.74087,-6.47766 h 3.74193 v -2.11581 z m -1.22217,2.11685 c -1.8581,3.21757 -3.71555,6.43484 -5.57364,9.65238 l 5.57262,-0.001 c 1.85737,-0.002 3.71595,4.4e-4 5.57364,0 -1.85743,-3.21712 -3.71519,-6.43415 -5.57262,-9.65132 z m -8.62754,11.23925 v 1.58388 h 17.25507 v -1.58388 z M -574.3529,157.6464 v 1.05791 h 17.25507 v -1.05791 z m 0,1.58686 v 2.11583 h 3.73988 c -1.24652,2.15861 -2.49336,4.31693 -3.73988,6.47556 v 4.23472 l 3.70269,-6.41253 3.70268,-6.41358 z m 9.84971,0 3.70269,6.41358 3.70267,6.41253 v -4.23472 c -3.8e-4,6.8e-4 -6.4e-4,0.001 -10e-4,0.002 -1.24686,-2.15931 -2.49398,-4.31837 -3.74088,-6.47766 h 3.74194 v -2.11581 z m -1.22217,2.11685 c -1.8581,3.21757 -3.71555,6.43484 -5.57365,9.65238 l 5.57263,-0.001 c 1.85737,-0.002 3.71595,4.4e-4 5.57364,0 -1.85744,-3.21712 -3.71519,-6.43415 -5.57262,-9.65132 z m -8.62754,11.23925 v 1.58388 h 17.25507 v -1.58388 z m -17.25507,-14.94296 v 1.05791 h 17.25507 v -1.05791 z m 0,1.58686 v 2.11583 h 3.73988 c -1.24652,2.15861 -2.49336,4.31693 -3.73988,6.47556 v 4.23472 l 3.70269,-6.41253 3.70268,-6.41358 z m 9.8497,0 3.7027,6.41358 3.70267,6.41253 v -4.23472 c -3.8e-4,6.8e-4 -6.4e-4,0.001 -10e-4,0.002 -1.24686,-2.15931 -2.49398,-4.31837 -3.74088,-6.47766 h 3.74194 v -2.11581 z m -1.22216,2.11685 c -1.8581,3.21757 -3.71555,6.43484 -5.57365,9.65238 l 5.57263,-0.001 c 1.85737,-0.002 3.71594,4.4e-4 5.57364,0 -1.85744,-3.21712 -3.71519,-6.43415 -5.57262,-9.65132 z m -8.62754,11.23925 v 1.58388 h 17.25507 v -1.58388 z m -17.25507,-14.94286 v 1.05791 h 17.25507 v -1.05791 z m 0,1.58686 v 2.11583 h 3.73988 c -1.24652,2.15861 -2.49336,4.31693 -3.73988,6.47556 v 4.23472 l 3.70269,-6.41253 3.70268,-6.41358 z m 9.8497,0 3.7027,6.41358 3.70267,6.41253 v -4.23472 c -3.8e-4,6.8e-4 -6.4e-4,0.001 -10e-4,0.002 -1.24686,-2.15931 -2.49398,-4.31837 -3.74088,-6.47766 h 3.74194 v -2.11581 z m -1.22217,2.11685 c -1.85809,3.21757 -3.71554,6.43484 -5.57364,9.65238 l 5.57262,-0.001 c 1.85738,-0.002 3.71595,4.4e-4 5.57365,0 -1.85744,-3.21712 -3.71519,-6.43415 -5.57263,-9.65132 z m -8.62753,11.23925 v 1.58388 h 17.25507 v -1.58388 z m -17.25507,-14.94286 v 1.05791 h 17.25507 v -1.05791 z m 0,1.58686 v 2.11583 h 3.73988 c -1.24652,2.15861 -2.49336,4.31693 -3.73988,6.47556 v 4.23472 l 3.70269,-6.41253 3.70267,-6.41358 z m 9.8497,0 3.7027,6.41358 3.70267,6.41253 v -4.23472 c -3.8e-4,6.8e-4 -6.4e-4,0.001 -0.001,0.002 -1.24686,-2.15931 -2.49398,-4.31837 -3.74088,-6.47766 h 3.74194 v -2.11581 z m -1.22217,2.11685 c -1.85809,3.21757 -3.71554,6.43484 -5.57364,9.65238 l 5.57262,-0.001 c 1.85738,-0.002 3.71595,4.4e-4 5.57365,0 -1.85744,-3.21712 -3.71519,-6.43415 -5.57263,-9.65132 z m -8.62753,11.23925 v 1.58388 h 17.25507 v -1.58388 z m -17.25507,-14.94288 v 1.05791 h 17.25507 v -1.05791 z m 0,1.58686 v 2.11583 h 3.73987 c -1.24651,2.15861 -2.49335,4.31693 -3.73987,6.47556 v 4.23472 l 3.70269,-6.41253 3.70267,-6.41358 z m 9.8497,0 3.70269,6.41358 3.70268,6.41253 v -4.23472 c -3.8e-4,6.8e-4 -6.4e-4,0.001 -10e-4,0.002 -1.24686,-2.15931 -2.49398,-4.31837 -3.74088,-6.47766 h 3.74194 v -2.11581 z m -1.22217,2.11685 c -1.85809,3.21757 -3.71555,6.43484 -5.57364,9.65238 l 5.57262,-0.001 c 1.85738,-0.002 3.71595,4.4e-4 5.57364,0 -1.85743,-3.21712 -3.71518,-6.43415 -5.57262,-9.65132 z m -8.62753,11.23925 v 1.58388 h 17.25507 v -1.58388 z m -17.25507,-14.94296 v 1.05791 h 17.25507 v -1.05791 z m 0,1.58686 v 2.11583 h 3.73987 c -1.24652,2.15861 -2.49335,4.31693 -3.73987,6.47556 v 4.23472 l 3.70269,-6.41253 3.70267,-6.41358 z m 9.8497,0 3.70269,6.41358 3.70268,6.41253 v -4.23472 c -3.8e-4,6.8e-4 -6.4e-4,0.001 -10e-4,0.002 -1.24686,-2.15931 -2.49398,-4.31837 -3.74088,-6.47766 h 3.74194 v -2.11581 z m -1.22217,2.11685 c -1.85809,3.21757 -3.71555,6.43484 -5.57364,9.65238 l 5.57262,-0.001 c 1.85738,-0.002 3.71595,4.4e-4 5.57364,0 -1.85743,-3.21712 -3.71518,-6.43415 -5.57262,-9.65132 z m -8.62753,11.23925 v 1.58388 h 17.25507 v -1.58388 z m -17.25508,-14.94286 v 1.05791 h 17.25508 v -1.05791 z m 0,1.58686 v 2.11583 h 3.73988 c -1.24652,2.15861 -2.49336,4.31693 -3.73988,6.47556 v 4.23472 l 3.7027,-6.41253 3.70267,-6.41358 z m 9.84971,0 3.70269,6.41358 3.70268,6.41253 v -4.23472 c -3.8e-4,6.8e-4 -6.4e-4,0.001 -10e-4,0.002 -1.24686,-2.15931 -2.49398,-4.31837 -3.74088,-6.47766 h 3.74194 v -2.11581 z m -1.22217,2.11685 c -1.85809,3.21757 -3.71555,6.43484 -5.57364,9.65238 l 5.57262,-0.001 c 1.85737,-0.002 3.71595,4.4e-4 5.57364,0 -1.85743,-3.21712 -3.71519,-6.43415 -5.57262,-9.65132 z m -8.62754,11.23925 v 1.58388 h 17.25508 v -1.58388 z m -17.25507,-14.94286 v 1.05791 h 17.25507 v -1.05791 z m 0,1.58686 v 2.11583 h 3.73988 c -1.24652,2.15861 -2.49336,4.31693 -3.73988,6.47556 v 4.23472 l 3.7027,-6.41253 3.70267,-6.41358 z m 9.84971,0 3.70269,6.41358 3.70267,6.41253 v -4.23472 c -3.8e-4,6.8e-4 -6.4e-4,0.001 -10e-4,0.002 -1.24685,-2.15931 -2.49397,-4.31837 -3.74087,-6.47766 h 3.74193 v -2.11581 z m -1.22217,2.11685 c -1.85809,3.21757 -3.71555,6.43484 -5.57364,9.65238 l 5.57262,-0.001 c 1.85737,-0.002 3.71595,4.4e-4 5.57364,0 -1.85743,-3.21712 -3.71519,-6.43415 -5.57262,-9.65132 z m -8.62754,11.23925 v 1.58388 h 17.25507 v -1.58388 z m -17.25507,-14.94286 v 1.05791 h 17.25507 v -1.05791 z m 0,1.58686 v 2.11583 h 3.73988 c -1.24652,2.15861 -2.49336,4.31693 -3.73988,6.47556 v 4.23472 l 3.7027,-6.41253 3.70267,-6.41358 z m 9.84971,0 3.70269,6.41358 3.70267,6.41253 v -4.23472 c -3.8e-4,6.8e-4 -6.4e-4,0.001 -10e-4,0.002 -1.24686,-2.15931 -2.49397,-4.31837 -3.74087,-6.47766 h 3.74193 v -2.11581 z m -1.22217,2.11685 c -1.8581,3.21757 -3.71555,6.43484 -5.57364,9.65238 l 5.57262,-0.001 c 1.85737,-0.002 3.71595,4.4e-4 5.57364,0 -1.85743,-3.21712 -3.71519,-6.43415 -5.57262,-9.65132 z m -8.62754,11.23925 v 1.58388 h 17.25507 v -1.58388 z m -17.25507,-14.94296 v 1.05791 h 17.25507 v -1.05791 z m 0,1.58686 v 2.11583 h 3.73988 c -1.24652,2.15861 -2.49336,4.31693 -3.73988,6.47556 v 4.23472 l 3.70269,-6.41253 3.70268,-6.41358 z m 9.84971,0 3.70269,6.41358 3.70267,6.41253 v -4.23472 c -3.8e-4,6.8e-4 -6.4e-4,0.001 -10e-4,0.002 -1.24686,-2.15931 -2.49398,-4.31837 -3.74088,-6.47766 h 3.74194 v -2.11581 z m -1.22217,2.11685 c -1.8581,3.21757 -3.71555,6.43484 -5.57365,9.65238 l 5.57263,-0.001 c 1.85737,-0.002 3.71594,4.4e-4 5.57364,0 -1.85744,-3.21712 -3.71519,-6.43415 -5.57262,-9.65132 z m -8.62754,11.23925 v 1.58388 h 17.25507 v -1.58388 z m -17.25507,-14.94286 v 1.05791 h 17.25507 v -1.05791 z m 0,1.58686 v 2.11583 h 3.73988 c -1.24652,2.15861 -2.49336,4.31693 -3.73988,6.47556 v 4.23472 l 3.70269,-6.41253 3.70268,-6.41358 z m 9.8497,0 3.7027,6.41358 3.70267,6.41253 v -4.23472 c -3.8e-4,6.8e-4 -6.4e-4,0.001 -10e-4,0.002 -1.24686,-2.15931 -2.49398,-4.31837 -3.74088,-6.47766 h 3.74194 v -2.11581 z m -1.22216,2.11685 c -1.8581,3.21757 -3.71555,6.43484 -5.57365,9.65238 l 5.57263,-0.001 c 1.85737,-0.002 3.71594,4.4e-4 5.57364,0 -1.85744,-3.21712 -3.71519,-6.43415 -5.57262,-9.65132 z m -8.62754,11.23925 v 1.58388 h 17.25507 v -1.58388 z"
       inkscape:export-xdpi="96"
       inkscape:export-ydpi="96" />
  </g>
</svg>
