<?xml version="1.0" encoding="UTF-8" standalone="no"?>
<svg
   xmlns:dc="http://purl.org/dc/elements/1.1/"
   xmlns:cc="http://creativecommons.org/ns#"
   xmlns:rdf="http://www.w3.org/1999/02/22-rdf-syntax-ns#"
   xmlns:svg="http://www.w3.org/2000/svg"
   xmlns="http://www.w3.org/2000/svg"
   xmlns:sodipodi="http://sodipodi.sourceforge.net/DTD/sodipodi-0.dtd"
   xmlns:inkscape="http://www.inkscape.org/namespaces/inkscape"
   width="16"
   height="16"
   viewBox="0 0 4.2333333 4.2333333"
   version="1.1"
   id="svg1417"
   sodipodi:docname="pattern-2.svg"
   inkscape:version="1.0.1 (3bc2e813f5, 2020-09-07)">
  <sodipodi:namedview
     pagecolor="#ffffff"
     bordercolor="#666666"
     borderopacity="1"
     objecttolerance="10"
     gridtolerance="10"
     guidetolerance="10"
     inkscape:pageopacity="0"
     inkscape:pageshadow="2"
     inkscape:window-width="1280"
     inkscape:window-height="697"
     id="namedview842"
     showgrid="false"
     units="px"
     inkscape:zoom="16.354946"
     inkscape:cx="16.310542"
     inkscape:cy="10.730675"
     inkscape:window-x="-8"
     inkscape:window-y="-8"
     inkscape:window-maximized="1"
     inkscape:current-layer="svg1417"
     fit-margin-top="0"
     fit-margin-left="0"
     fit-margin-right="0"
     fit-margin-bottom="0" />
  <defs
     id="defs1411" />
  <metadata
     id="metadata1414">
    <rdf:RDF>
      <cc:Work
         rdf:about="">
        <dc:format>image/svg+xml</dc:format>
        <dc:type
           rdf:resource="http://purl.org/dc/dcmitype/StillImage" />
        <dc:title></dc:title>
      </cc:Work>
    </rdf:RDF>
  </metadata>
  <g
     id="layer1"
     transform="matrix(0.61310006,0,0,0.64011528,-66.477551,-101.43722)">
    <path
       style="fill:#000000;fill-opacity:1;stroke-width:0.0647565"
       d="m 107.56545,165.11492 v 0.79226 h 8.631 v -0.79226 z"
       id="path1376" />
    <path
       style="fill:#000000;fill-opacity:1;stroke-width:0.0529235"
       d="m 111.88095,159.49304 c -0.92942,1.60943 -1.85852,3.21871 -2.78794,4.82813 l 2.78743,-5.3e-4 c 0.92906,-8.2e-4 1.85872,2.2e-4 2.78794,0 -0.92909,-1.60921 -1.85834,-3.21837 -2.78743,-4.8276 z"
       id="path1374" />
    <path
       style="fill:#000000;fill-opacity:1;stroke-width:0.0529235"
       d="m 112.49228,158.43419 1.85209,3.20808 1.85208,3.20755 v -2.11821 c -1.9e-4,3.4e-4 -3.2e-4,6.8e-4 -5.3e-4,0.001 -0.62368,-1.08009 -1.24749,-2.16005 -1.87119,-3.24013 h 1.87172 v -1.05833 z"
       id="path1372" />
    <path
       style="fill:#000000;fill-opacity:1;stroke-width:0.0529235"
       d="m 107.56545,158.43419 v 1.05834 h 1.87069 c -0.62351,1.07974 -1.24718,2.15933 -1.87069,3.23908 v 2.11821 l 1.85209,-3.20755 1.85208,-3.20808 z"
       id="path1370" />
    <path
       style="fill:#000000;fill-opacity:1;stroke-width:0.0529235"
       d="m 107.56545,157.64044 v 0.52917 h 8.631 v -0.52917 z"
       id="path1109" />
  </g>
</svg>
